<svg id="Group_168" data-name="Group 168" xmlns="http://www.w3.org/2000/svg" width="677.183" height="375.927" viewBox="0 0 677.183 375.927">
  <g id="Group_33" data-name="Group 33" transform="translate(313.68 45.977)">
    <path id="Path_14" data-name="Path 14" d="M952.478,830.491c8.744,4.371,17.739,4.082,23.957,11.4,8.3,9.769,12.652,28.144,14.437,41.536.9,6.733,1.6,29.251,1.6,29.251a98.121,98.121,0,0,1-10.965,3.03c-3.259.661-6.424.282-8.407,1.075-1.253.5-8.788,0-8.788,0a89.352,89.352,0,0,1-.153,11.574,193.34,193.34,0,0,0-1.391,32.159c.323,7.941,1.633,16.18,1.069,24.07-.184,2.577-1.785,15.253-1.785,15.253s3.775,6.623,3.274,8.629c-.837,3.348-5.528,2.248-8.036,2.083-4.538-.3-11.379-1.919-17.631-1.487-10.788.744-22.618,4.761-33.182,8.778-7.449,2.833-19.12,5.4-27.867,1.053-5.284-2.624-10.934-5.39-13.922-7.233-1.469-.907-10.625-3.771-10.625-3.771l-1.5-2.3,1.9-5.1s-2.755-5.482-2.444-7.038c.73-3.651,4.631-7.964,5.541-12.422.577-2.826-1.019-12.284-1.157-14.648-.582-10.01-2.411-30.528.544-48.256.793-4.758-3.84-14.742-8.622-17.611-9.024-5.415-14.986-16.409-14.986-16.409s4.875-22.509,5.934-26.369,2.482-12.955,7.561-17.129c6.033-4.959,18.592-7.127,25.343-10.459a69.073,69.073,0,0,1,18.427-5.983s7.389,6.572,13.292,5.588c10.525-1.754,23.865-11.9,23.865-11.9s6.227,4.262,8.94,5.62Z" transform="translate(-810.888 -733.309)" fill="#fcd68b" fill-rule="evenodd"/>
    <path id="Path_15" data-name="Path 15" d="M992.256,1095.095a45.152,45.152,0,0,1,.627,9.742c-.215,4.4-.135,10.48-.224,14.867-.285,14.007-2.383,31.112-13.244,31.7-6.513.351-12.692,1-19.954-1.366-10.7-3.484-25.355-11.059-32.724-15.546-10.709-6.519-27.994-19.134-41.436-25.528-9.687-4.608-13.232-2.532-24.69-.025-5.839,1.278-11.958.589-17.128-3.1-3.617-2.583-5.331-3.731-7.783-7.235-2.424-3.462-7.125-9.74-5.916-14.576,1.945-7.783,27.007-6.714,27.007-6.714l3.166-4.547,5.767.289c3.428.737,5.622.636,8.194,1.692,5.029,2.062,6.674,5.113,10.119,8.72,3.632,3.8,11.38,6.677,15.89,8.852A215.176,215.176,0,0,0,932.2,1104.36c5.229,1.428,11.275,3.679,16.334,5.647,1.834.713,9.157,4.216,9.157,4.216l-.322-8.921-.43-6.881s12.444,1.28,15.7,1.118C980.107,1099.166,992.256,1095.095,992.256,1095.095Z" transform="translate(-810.282 -916.303)" fill="#ffefe9" fill-rule="evenodd"/>
    <path id="Path_16" data-name="Path 16" d="M1360.947,1109.388s.218,6.707.1,8.9c-.237,4.272-.682,10.943-.256,15.207a22,22,0,0,1-.113,2.974s-6.618,1.95-7.8,1.58c-11.786-3.683-7.99-20.869-14.21-29.163l-7.144-1.528-1.785-4.214a14.318,14.318,0,0,1-2.313-4.717c-.4-1.915-.212-2.062-.212-2.062a4.919,4.919,0,0,1-1.444-2.728c-.22-1.652.564-3.846.377-4.082-.911-1.137-1.567-3.281-2.466-4.367-2.379-2.875-4.875-4.667-6.407-8.307-.333-.79-2.876-4.032-1.178-4.6,1.658-.553,7.226,3.222,8.01,4,3.761,3.76,10.322,10.955,14.124,14.756,4.8,4.8,2.292,7.814,7.986,11.609C1350.574,1105.559,1360.947,1109.388,1360.947,1109.388Z" transform="translate(-1315.513 -915.917)" fill="#ffefe9" fill-rule="evenodd"/>
    <path id="Path_17" data-name="Path 17" d="M1102.269,660.6l-.635-.21Z" transform="translate(-996.366 -620.258)" fill="#ffefe9" fill-rule="evenodd"/>
    <path id="Path_18" data-name="Path 18" d="M1108.642,625.434s3.709-3.282,6.566-3.758c5.022-.837,6.208,8.452,4.979,12.136a13.728,13.728,0,0,1-2.6,4.868,10.164,10.164,0,0,1-4.006,2.422s-.023,11.545.86,15.076a23.866,23.866,0,0,0,6.165,11.3c2.6,2.832,3.29,3.121,3.29,3.121s-5.971,3.666-7.215,4.357c-5.5,3.055-10.864,9.209-17.341,7.913-4.635-.926-8.751-.335-12.239-4.266a15.772,15.772,0,0,1-2.362-4.356s-6.954-.8-9.717-3.564c-8.675-8.675-13.339-18.858-16.847-35.245-1.357-6.343-2.866-12.353.46-18.341,6.712-12.08,27.639-4.148,36.086,1.765C1096.521,620.127,1108.642,625.434,1108.642,625.434Z" transform="translate(-1005.293 -584.651)" fill="#ffefe9" fill-rule="evenodd"/>
    <path id="Path_19" data-name="Path 19" d="M1040.624,1493.607s1.123,8.906,1.655,11.836c1.747,9.6,1.755,21.449,1.755,31.25,0,2.259-.439,9.87-.439,9.87l-119.52-.11s-.024-4.36.109-7.127c.439-9.1,1.644-22.867,3.948-33.553.811-3.762,2.846-13.889,2.846-13.889s5.27-.428,13.273,4.973,12.173,6.9,21.065,8.081c8.927,1.191,21.468-4.872,29.405-7.758a84.9,84.9,0,0,1,27.324-4.623c5.419.011,10.141,1.243,13.636,1.377A17.841,17.841,0,0,0,1040.624,1493.607Z" transform="translate(-888.041 -1217.182)" fill="#e3d3b2" fill-rule="evenodd"/>
    <path id="Path_20" data-name="Path 20" d="M1146.023,555.158s1.882-11.926,1.179-16.441a31.357,31.357,0,0,0-2.416-8.661c-1.052-2.379-3.045-4.572-4.773-6.6-3.846-4.517-8.821-4.612-13.477-4.864-3.581-.193-7.957-.861-11.478-.087-3.122.687-5.4,2.707-8.449,4.232-2.474,1.238-4.441,1.056-6.878,2.42a28.379,28.379,0,0,0-8.161,6.822c-1.162,1.313-4.575,5.3-6.508,6.237-2.116,1.021-3.769-.179-4.4,1.564a16.349,16.349,0,0,0-.387,7.939,19.958,19.958,0,0,0,3.873,9.3,19.524,19.524,0,0,0,3.112,1.316s.939-4.22,2.449-4.722c1.356-.453,4.792.64,6.7.175,4.547-1.108,6.8-4.7,12.524-3.837,5.015.753,9.78,4.746,13.265,8.23,3.325,3.325,7.949,7.539,13.278,5.171,2.994-1.33,2.5-4.331,4.83-6.235C1142.281,555.5,1146.023,555.158,1146.023,555.158Z" transform="translate(-1035.343 -518.141)" fill="#b7a28d" fill-rule="evenodd"/>
    <path id="Path_21" data-name="Path 21" d="M1348.084,1063.806c-1.669-2.3-2.77-5.234-4.611-7.536-3.541-4.424-11.884-3.922-16.873-3.3-2.336.292-10.112-.3-9.6,3.3.365,2.555,2.607,4.848,3.974,6.9,1.733,2.6,4.765,8.61,4.765,8.61a27.97,27.97,0,0,1,6.183,3.164c1.154.922,2.039,2.51,3.45,3.074,2.686,1.075,6.757.114,9.673.6a59.091,59.091,0,0,0,9.749,1.2c.734,0,2.993.021,3.3-.9.425-1.275-5.138-2.543-6.224-2.776-4.439-.951-13.39.483-16.8-2.924-.778-.778-2.007-.715-2.55-1.8-.731-1.462,2.371-1.966,3.15-2.55s.516-1.885,1.5-2.475a17.686,17.686,0,0,1,6.074-1.8c1.1-.182,2.207-.267,3.3-.45C1346.749,1064.11,1348.168,1063.922,1348.084,1063.806Z" transform="translate(-1312.965 -901.804)" fill="#939393" fill-rule="evenodd"/>
    <path id="Path_22" data-name="Path 22" d="M1336.078,1163.073c-3.527,2.352-7.663.124-11.4.124-.841,0-4.573-.9-5.016.278-.4,1.057,1.806,2.61,1.806,2.61l-7.429.3-.351-4.517s-.169-4.528-.034-4.6c.666-.333,5.847,1.054,6.509,1.333,2.158.9,11.294,3.162,11.294,3.162Z" transform="translate(-1289.973 -976.937)" fill="#939393" fill-rule="evenodd"/>
    <path id="Path_23" data-name="Path 23" d="M750.254,809.11a31.538,31.538,0,0,1,4.1-.2c1.311.144,4.609,2.215,5.806,1.618.31-.156,4.721,3.12,9.9,4.327,5.241,1.222,10.939,1.48,15.633,2.262,7.127,1.188,14.911.81,21.423,4.529,6.8,3.884,17.385,16.217,17.385,16.217s2.634,1.767,4.8,6.394,4.8,19.018,5.426,25.3c.884,8.831,1.306,16.157,1.828,25.015.588,9.995,1.837,20.323,3.251,30.219a54.177,54.177,0,0,1,.154,16.346c-.991,5.613-9.276,4.857-9.276,4.857s1.344,36.4-2,51.461c-1.445,6.506-5.18,16.394-10.208,23.027-4.187,5.52-7.385,6.535-12.7,8.814-4.794,2.055-14.877,1.2-14.877,1.2s-.726-9.355-.863-10.594c-.852-7.665-2.026-16.252-2.026-16.252s1.981-.158,1.827-2.591c-.15-2.374-2.393-4-2.9-7.686-.771-5.618,1.008-12.547,1.5-16.522.282-2.258-.2-15.537-.2-15.537s5.711.413,7.1.645c3.015.5,11.966-.725,14.562-2.291,3.991-2.407,6.9-10.8,7.75-25.245.432-7.345.234-26.156-.171-33.458-1.264-22.736-3.027-53.434-21.247-69.05-4.315-3.7-9.568-4.813-15.4-6.377a111.683,111.683,0,0,1-14.153-4.851C759.449,817.594,755.4,814,750.254,809.11Z" transform="translate(-635.488 -726.881)" fill="#79a8c6" fill-rule="evenodd"/>
    <path id="Path_24" data-name="Path 24" d="M945.331,812.376a22,22,0,0,0-18.4-18.462c-4.685-.707-13.892.34-14.769,6.4-.091.628,3.512,2.159,4.085,1.9,1.32-.595,1.419-2.244,2.331-3.161,3.253-3.277,6.971-4.268,11.138-2.269,3.552,1.7,6.647,5.744,8.021,9.417a12.728,12.728,0,0,1,.906,4.74c-.015.374-.571,1.116-.22,1.411C938.976,812.82,945.437,813.16,945.331,812.376Z" transform="translate(-785.979 -715.98)" fill="#939393" fill-rule="evenodd"/>
    <path id="Path_25" data-name="Path 25" d="M726.114,918.711c.305-1.092,2.459,1.154,3.1,1.871,2.456,2.763,4.922,5.91,5.675,9.673.481,2.406,1.4,4.638,1.677,7.093,1.039,9.366-.034,18.566,2.256,27.729a17.269,17.269,0,0,0,5.223,7.609c.688.516,2.126.8,2.58,1.484.4.6-2.638,4.189-3.418,4.385-.939.234-3.873-2.713-4.514-3.354-4.169-4.169-3.1-10.741-3.676-15.928-.607-5.474-.413-11.713-1.74-17.024-1.229-4.916-1.773-9.915-3.161-14.767C729.336,924.761,725.375,921.356,726.114,918.711Z" transform="translate(-534.795 -805.499)" fill="#939393" fill-rule="evenodd"/>
    <path id="Path_26" data-name="Path 26" d="M989,836.44c1.28.9-2.272,8.175-2.623,9.788-1.927,8.869-2.3,15.277-2.3,24.4,0,11.358,5.143,27.611,7.48,38.625.573,2.7,1.088,11.357,1.088,11.357a55.7,55.7,0,0,1-5.372-3.264c-3.754-3.976-8.446-8-10.676-13.057-7.37-16.7-10.473-34.745-10.473-52.906,0-5.025,1.239-11.275,1.836-16.252.161-1.339,1.307-5.672,3.332-6.188s6.854,4.032,8.432,4.759C983.5,835.44,985.746,834.143,989,836.44Z" transform="translate(-848.517 -741.234)" fill="#939393" fill-rule="evenodd"/>
    <path id="Path_27" data-name="Path 27" d="M1274.3,855.95s-3.01,4.563-3.34,4.975a56.814,56.814,0,0,0-4.294,6.68,69.571,69.571,0,0,0-7.769,19.7c-1.872,7.488-4.363,19.015-4.158,24.263.094,2.428-.2,4.184-.2,6.611,0,.476.2,3.953.2,3.953l-5.317.136s-.2-3.1-.273-3.68c-.577-4.619-.4-7.677-.613-12.335-.155-3.418.024-8.5.2-11.928a125.7,125.7,0,0,1,3.224-19.987,68.676,68.676,0,0,1,4.75-12.728s6.263-3.764,11.586-4.429C1270.025,856.962,1274.3,855.95,1274.3,855.95Z" transform="translate(-1209.823 -760.654)" fill="#939393" fill-rule="evenodd"/>
    <path id="Path_28" data-name="Path 28" d="M1178.187,1136.538c.129,2.744-2.721,5.924-3.625,8.679-.56,1.706-.94,3.486-1.334,5.238-.684,3.047-6.824,8.84-6.984,2.607-.117-4.556,4.266-9.026,6.067-12.971.673-1.477,1.106-4.528,2.358-5.611C1175.125,1134.086,1178.155,1135.856,1178.187,1136.538Z" transform="translate(-1090.515 -960.569)" fill="#939393" fill-rule="evenodd"/>
  </g>
  <path id="Path_29" data-name="Path 29" d="M1265.55,726.56a1.357,1.357,0,1,0-1.356,1.308A1.332,1.332,0,0,0,1265.55,726.56Z" transform="translate(-891.443 -620.849)" fill="#664238" fill-rule="evenodd"/>
  <g id="Group_98" data-name="Group 98" transform="translate(312.811 44.778)">
    <g id="Group_34" data-name="Group 34" transform="translate(51.48 37.588)">
      <path id="Path_30" data-name="Path 30" d="M1287.635,662.047a1.032,1.032,0,0,0,.967-1.395c-1.283-3.422-2.091-8.391-.511-12.078a1.033,1.033,0,0,0-1.9-.814c-2.29,5.347-.215,11.774.476,13.616A1.032,1.032,0,0,0,1287.635,662.047Z" transform="translate(-1285.145 -647.134)" fill="#664238"/>
    </g>
    <g id="Group_35" data-name="Group 35" transform="translate(56.331 64.243)">
      <path id="Path_31" data-name="Path 31" d="M1144.727,769.059a18.5,18.5,0,0,0,9.742-3.079c4.088-2.53,9.824-8.567,11.286-11.4a1.033,1.033,0,0,0-1.835-.948c-1.163,2.252-6.569,8.134-10.538,10.59-4.533,2.806-8.9,3.475-12.98,2-10.106-3.659-15.98-19.215-17.54-23.9a1.032,1.032,0,0,0-1.959.653c2.094,6.284,8.118,21.319,18.8,25.185A14.67,14.67,0,0,0,1144.727,769.059Z" transform="translate(-1120.85 -741.62)" fill="#664238"/>
    </g>
    <g id="Group_36" data-name="Group 36" transform="translate(63.622 58.647)">
      <path id="Path_32" data-name="Path 32" d="M1241.833,734.488a1.032,1.032,0,0,0,.2-2.045,2.265,2.265,0,0,1-1.567-.8c-.368-.628.019-1.824.361-2.878a12.12,12.12,0,0,0,.461-1.686,7.852,7.852,0,0,0-1.079-4.726,1.032,1.032,0,1,0-1.846.925,6.093,6.093,0,0,1,.888,3.461,10.853,10.853,0,0,1-.389,1.389c-.452,1.4-1.014,3.133-.178,4.559a4.136,4.136,0,0,0,2.944,1.781A1.032,1.032,0,0,0,1241.833,734.488Z" transform="translate(-1238.255 -721.783)" fill="#664238"/>
    </g>
    <g id="Group_37" data-name="Group 37" transform="translate(71.65 48.534)">
      <path id="Path_33" data-name="Path 33" d="M1194.365,689.524a1.028,1.028,0,0,0,.572-.173,7.994,7.994,0,0,1,6.365-1.119,1.033,1.033,0,1,0,.5-2,10.076,10.076,0,0,0-8.011,1.4,1.033,1.033,0,0,0,.573,1.892Z" transform="translate(-1193.331 -685.933)" fill="#664238"/>
    </g>
    <g id="Group_38" data-name="Group 38" transform="translate(55.321 52.572)">
      <path id="Path_34" data-name="Path 34" d="M1266.329,702.953a1.027,1.027,0,0,0,.618-.206,3.676,3.676,0,0,1,2.415-.377,1.032,1.032,0,1,0,.363-2.033,5.665,5.665,0,0,0-4.017.758,1.032,1.032,0,0,0,.62,1.858Z" transform="translate(-1265.296 -700.25)" fill="#664238"/>
    </g>
    <g id="Group_39" data-name="Group 39" transform="translate(102.832 37.194)">
      <path id="Path_35" data-name="Path 35" d="M1069.478,667.085c3.186,0,6.082-2.257,7.745-6.038,1.7-3.874,2.091-9.62-1.086-13.086a6.149,6.149,0,0,0-5.95-2.089,9.026,9.026,0,0,0-6.187,5.9,1.033,1.033,0,0,0,1.959.654,6.976,6.976,0,0,1,4.659-4.532,4.059,4.059,0,0,1,4,1.466c2.437,2.659,2.206,7.475.717,10.858-1.324,3.009-3.513,4.8-5.854,4.8a1.033,1.033,0,1,0,0,2.065Z" transform="translate(-1063.947 -645.737)" fill="#664238"/>
    </g>
    <g id="Group_40" data-name="Group 40" transform="translate(106.734 45.306)">
      <path id="Path_36" data-name="Path 36" d="M1087.259,680.412a1.031,1.031,0,0,0,.924-.571,21.937,21.937,0,0,1,2.226-3.7,1.032,1.032,0,0,0-1.662-1.226,23.929,23.929,0,0,0-2.411,4.008,1.033,1.033,0,0,0,.923,1.494Z" transform="translate(-1086.227 -674.491)" fill="#664238"/>
    </g>
    <g id="Group_41" data-name="Group 41" transform="translate(107.926 59.624)">
      <path id="Path_37" data-name="Path 37" d="M1057.7,755.557a1.032,1.032,0,0,0,.542-1.912c-11.724-7.214-12.695-17.06-12.695-27.366a1.032,1.032,0,1,0-2.065,0c0,10.479,1.056,21.358,13.678,29.124A1.024,1.024,0,0,0,1057.7,755.557Z" transform="translate(-1043.481 -725.247)" fill="#664238"/>
    </g>
    <g id="Group_42" data-name="Group 42" transform="translate(79.363 87.529)">
      <path id="Path_38" data-name="Path 38" d="M1075.049,836.94a25.015,25.015,0,0,0,7.882-1.355c3.823-1.275,7.656-3.919,10.736-6.043,2.233-1.541,4.341-3,5.639-3.348a1.032,1.032,0,1,0-.542-1.992c-1.637.445-3.784,1.926-6.27,3.641-3.127,2.157-6.671,4.6-10.217,5.784-7.236,2.414-16.269,1.595-19-5.9a1.032,1.032,0,1,0-1.94.707C1063.326,833.893,1068.538,836.94,1075.049,836.94Z" transform="translate(-1061.273 -824.165)" fill="#664238"/>
    </g>
    <g id="Group_43" data-name="Group 43" transform="translate(77.353 32.222)">
      <path id="Path_39" data-name="Path 39" d="M1142.039,640.23a15.921,15.921,0,0,0,4.5-.7,1.033,1.033,0,0,0-.582-1.982c-6.988,2.058-10.5-1.453-13.9-4.846-2.05-2.049-3.987-3.984-6.557-4.57a1.033,1.033,0,0,0-.458,2.014c1.99.453,3.722,2.184,5.556,4.017C1133.362,636.929,1136.667,640.23,1142.039,640.23Z" transform="translate(-1124.238 -628.111)" fill="#664238"/>
    </g>
    <g id="Group_44" data-name="Group 44" transform="translate(93.04 44.895)">
      <path id="Path_40" data-name="Path 40" d="M1123.2,676.141a6.921,6.921,0,0,0,3.969-1.215,1.033,1.033,0,1,0-1.145-1.718c-1.927,1.284-3.779.923-6,.315a1.032,1.032,0,1,0-.543,1.992A14.252,14.252,0,0,0,1123.2,676.141Z" transform="translate(-1118.723 -673.034)" fill="#664238"/>
    </g>
    <g id="Group_45" data-name="Group 45" transform="translate(70.629 28.442)">
      <path id="Path_41" data-name="Path 41" d="M1213.487,620.8a1.031,1.031,0,0,0,.488-.123c1.35-.725,3.359-2.636,3.359-4.928a1.033,1.033,0,1,0-2.065,0c0,1.288-1.355,2.617-2.271,3.109a1.033,1.033,0,0,0,.489,1.942Z" transform="translate(-1212.453 -614.712)" fill="#664238"/>
    </g>
    <g id="Group_46" data-name="Group 46" transform="translate(50.853 28.197)">
      <path id="Path_42" data-name="Path 42" d="M1235.407,623.392a12.882,12.882,0,0,0,3.742-.548,14.215,14.215,0,0,0,8.475-7.505,1.033,1.033,0,0,0-1.847-.924,12.177,12.177,0,0,1-7.226,6.453,12.386,12.386,0,0,1-9.756-1.4,1.033,1.033,0,0,0-1.025,1.793A15.431,15.431,0,0,0,1235.407,623.392Z" transform="translate(-1227.25 -613.844)" fill="#664238"/>
    </g>
    <g id="Group_47" data-name="Group 47" transform="translate(45.041 29.67)">
      <path id="Path_43" data-name="Path 43" d="M1297.089,631.2a1.033,1.033,0,1,0,0-2.065c-4.493,0-5.68-5.91-5.68-9.035a1.032,1.032,0,0,0-2.065,0C1289.344,625.444,1291.768,631.2,1297.089,631.2Z" transform="translate(-1289.344 -619.065)" fill="#664238"/>
    </g>
    <g id="Group_48" data-name="Group 48" transform="translate(45.285 22.384)">
      <path id="Path_44" data-name="Path 44" d="M1289.255,597.777a7.568,7.568,0,0,0,1.147-.086,5.5,5.5,0,0,0,4.246-2.959,1.033,1.033,0,0,0-1.847-.924,3.48,3.48,0,0,1-2.71,1.841,6.264,6.264,0,0,1-3.6-.583,1.032,1.032,0,1,0-.922,1.847A8.349,8.349,0,0,0,1289.255,597.777Z" transform="translate(-1284.996 -593.238)" fill="#664238"/>
    </g>
    <g id="Group_49" data-name="Group 49" transform="translate(46.186 7.159)">
      <path id="Path_45" data-name="Path 45" d="M1237.569,554.922c5.117,0,7.969-3.58,10.726-7.042,2.681-3.367,5.214-6.547,9.739-6.547a1.032,1.032,0,0,0,0-2.065c-5.519,0-8.619,3.891-11.354,7.325-2.566,3.221-4.989,6.263-9.111,6.263a1.032,1.032,0,1,0,0,2.065Z" transform="translate(-1236.537 -539.269)" fill="#664238"/>
    </g>
    <g id="Group_50" data-name="Group 50" transform="translate(70.87)">
      <path id="Path_46" data-name="Path 46" d="M1118.457,549.857a1.033,1.033,0,0,0,1.015-.848,54.088,54.088,0,0,0,.491-14.859c-.669-6.4-3.248-11.425-7.666-14.933-5.548-4.407-13.951-6.166-23.663-4.952-3.07.384-8.631,2.134-10.818,4.672a1.033,1.033,0,1,0,1.564,1.348c1.73-2.008,6.722-3.622,9.51-3.971,9.154-1.143,17.012.462,22.124,4.521,3.967,3.15,6.287,7.7,6.9,13.531a52.736,52.736,0,0,1-.469,14.275,1.032,1.032,0,0,0,.831,1.2A1.053,1.053,0,0,0,1118.457,549.857Z" transform="translate(-1077.564 -513.89)" fill="#664238"/>
    </g>
    <g id="Group_51" data-name="Group 51" transform="translate(144.127 98.263)">
      <path id="Path_47" data-name="Path 47" d="M851.669,1001.306c11.125,0,12.752-10.632,14.189-20.023,1.225-8.007,1.5-26.143.991-38.056-.608-14.15-1.729-30.444-5.431-44-3.154-11.555-6.926-20.151-11.21-25.547-4.687-5.906-16.013-9.965-21.966-11.432a1.032,1.032,0,0,0-.495,2c5.7,1.4,16.5,5.241,20.844,10.711,4.108,5.177,7.754,13.523,10.835,24.807,3.648,13.363,4.757,29.513,5.36,43.549.507,11.816.238,29.766-.969,37.655-1.636,10.686-3.474,18.268-12.156,18.27-.086,0-.167-.005-.258,0a1.033,1.033,0,0,0-.016,2.065Z" transform="translate(-826.962 -862.215)" fill="#664238"/>
    </g>
    <g id="Group_52" data-name="Group 52" transform="translate(83.767 197.24)">
      <path id="Path_48" data-name="Path 48" d="M978.284,1253.723a1.072,1.072,0,0,0,1.111-1.035,1.032,1.032,0,0,0-1.032-1.03.288.288,0,0,0-.078,0c-9.187,0-17.762-4.122-24.029-7.134-1.785-.858-3.471-1.668-4.946-2.277-11.118-4.59-20.536-10.82-30.507-17.415-2.638-1.745-5.3-3.505-8.016-5.25-1.5-.96-2.681-1.76-3.771-2.495-1.933-1.3-3.6-2.43-6.158-3.879a1.032,1.032,0,1,0-1.019,1.8c2.487,1.41,4.125,2.516,6.022,3.8,1.1.742,2.3,1.55,3.809,2.519,2.711,1.741,5.363,3.5,7.993,5.235,10.057,6.651,19.555,12.935,30.858,17.6,1.421.586,3.081,1.385,4.84,2.229C959.806,1249.484,968.627,1253.723,978.284,1253.723Z" transform="translate(-899.315 -1213.073)" fill="#664238"/>
    </g>
    <g id="Group_53" data-name="Group 53" transform="translate(28.934 185.949)">
      <path id="Path_49" data-name="Path 49" d="M1224.973,1182.409a39.688,39.688,0,0,0,9.767-1.625c1.3-.331,2.65-.672,3.969-.945,4.14-.856,10.123-1.183,15.125,2.112a1.032,1.032,0,1,0,1.136-1.723c-4.428-2.918-10.195-3.752-16.679-2.411-1.364.281-2.734.629-4.059.967-3.656.929-7.107,1.8-10.73,1.5-3.812-.323-7.775-2.047-11.49-3.862a11.226,11.226,0,0,1-2.193-1.307,14.035,14.035,0,0,1,2.7.222c.365.055.67.1.874.113.962.067,2.148.278,3.4.5a23.69,23.69,0,0,0,6.6.582,8.657,8.657,0,0,0,4.119-1.441,1.032,1.032,0,1,0-1.285-1.616h0a7.107,7.107,0,0,1-3.1,1.008,22.654,22.654,0,0,1-5.971-.566,36.545,36.545,0,0,0-3.619-.528c-.167-.012-.418-.051-.717-.1-1.8-.269-4.266-.637-5.156.846a1.541,1.541,0,0,0-.149,1.242c.184.62.756,1.508,3.571,2.885,3.916,1.913,8.094,3.723,12.242,4.074C1223.88,1182.387,1224.428,1182.409,1224.973,1182.409Z" transform="translate(-1207.446 -1173.047)" fill="#664238"/>
    </g>
    <g id="Group_54" data-name="Group 54" transform="translate(19.093 167.665)">
      <path id="Path_50" data-name="Path 50" d="M1323.694,1128.491a25.414,25.414,0,0,0,2.628-.137,1.033,1.033,0,1,0-.215-2.054c-5.052.531-8.912-.674-12.639-1.839a46.926,46.926,0,0,0-5.128-1.395l-.672-.129c-3.486-.67-8.259-1.585-8.938-2.717a.138.138,0,0,1-.016-.145c.157-.505.593-.636,1.74-.75l.2-.02c3.953-.416,10.761.79,14.835,1.508l.319.055c.048.01,4.973.781,6.437-.583a1.538,1.538,0,0,0,.5-1.307c-.148-1.4-1.846-2.486-10.086-3.9-3.107-.532-4.852-.71-6.539-.882s-3.292-.333-6.167-.856c-1.554-.282-3.988-1.327-4.112-1.889.052-.121.508-.773,4.755-.98.23-.011.42-.021.557-.031a79.4,79.4,0,0,1,21.621,1.98,1.033,1.033,0,0,0,.447-2.017c-3.77-.833-13.489-2.7-22.226-2.023-.123.009-.293.018-.5.028-2.814.137-5.876.441-6.584,2.325a2.047,2.047,0,0,0,.153,1.78c1.12,1.978,5.476,2.851,5.519,2.859,2.955.537,4.593.7,6.328.879,1.652.167,3.361.34,6.4.862a38.041,38.041,0,0,1,7.7,1.853,17.927,17.927,0,0,1-3.841-.129l-.32-.057c-4.179-.737-11.172-1.972-15.408-1.529l-.185.019c-1.09.109-2.916.292-3.506,2.193a2.187,2.187,0,0,0,.215,1.82c1.077,1.795,4.618,2.589,10.321,3.682l.671.129a45.632,45.632,0,0,1,4.9,1.338A34.811,34.811,0,0,0,1323.694,1128.491Z" transform="translate(-1293.771 -1108.232)" fill="#664238"/>
    </g>
    <g id="Group_55" data-name="Group 55" transform="translate(23.071 161.418)">
      <path id="Path_51" data-name="Path 51" d="M1274.254,1094.368a1.032,1.032,0,0,0,.7-1.788c-.265-.247-.288-.375-.288-.377.189-.946,5.238-2.385,8.061-2.679,1.288-.134,2.536-.274,3.756-.41,7.032-.786,13.106-1.464,20.41-.429a1.032,1.032,0,1,0,.291-2.044c-7.557-1.077-13.754-.383-20.93.42-1.216.136-2.459.276-3.742.409-.088.009-8.789,1.048-9.8,4.083a2.335,2.335,0,0,0,.839,2.538A1.029,1.029,0,0,0,1274.254,1094.368Z" transform="translate(-1272.606 -1086.089)" fill="#664238"/>
    </g>
    <g id="Group_56" data-name="Group 56" transform="translate(46.128 156.534)">
      <path id="Path_52" data-name="Path 52" d="M1020.228,1127.87a1.03,1.03,0,0,0,.967-1.393,30.769,30.769,0,0,0-12.464-15.273c-9.826-5.883-18.9-8.439-29.4-11.4l-2.755-.778a171.356,171.356,0,0,1-25.2-9.8c-.971-.46-2.011-.936-3.088-1.428-3.979-1.817-8.49-3.878-11.662-6.21a87.479,87.479,0,0,1-8.514-7.895c-3.288-3.333-6.178-3.609-9.838-3.958-.574-.055-1.172-.111-1.8-.184a17.085,17.085,0,0,1-1.778-.339,8.717,8.717,0,0,0-4.833-.142c-1.265.423-2.493,1.976-3.852,3.812-.226.305-.422.571-.577.762a1.032,1.032,0,1,0,1.605,1.3c.17-.208.385-.5.632-.832.68-.92,2.1-2.832,2.848-3.083a7.023,7.023,0,0,1,3.721.2,18.919,18.919,0,0,0,2,.377c.642.074,1.253.132,1.84.188,3.494.333,5.8.554,8.565,3.353a87.712,87.712,0,0,0,8.76,8.109c3.344,2.459,7.957,4.566,12.027,6.425,1.068.486,2.1.957,3.061,1.414a173.446,173.446,0,0,0,25.519,9.923l2.758.779c10.362,2.92,19.311,5.441,28.9,11.183a28.6,28.6,0,0,1,11.59,14.222A1.032,1.032,0,0,0,1020.228,1127.87Z" transform="translate(-905.205 -1068.776)" fill="#664238"/>
    </g>
    <g id="Group_57" data-name="Group 57" transform="translate(146.821 182.716)">
      <path id="Path_53" data-name="Path 53" d="M951.651,1178.8a1.033,1.033,0,0,0,1.029-.957c.132-1.791-.2-7.7-.517-13.1-.058-.972-.1-1.738-.124-2.166a1.032,1.032,0,1,0-2.062.1c.021.432.067,1.2.125,2.185.212,3.579.651,11.027.519,12.833a1.032,1.032,0,0,0,.954,1.1Z" transform="translate(-949.975 -1161.588)" fill="#664238"/>
    </g>
    <g id="Group_58" data-name="Group 58" transform="translate(41.128 196.752)">
      <path id="Path_54" data-name="Path 54" d="M964.355,1304.6c8.182,0,15.994-2.934,23.61-5.793,5.794-2.175,11.785-4.424,17.762-5.279l.905-.129c5.643-.812,11.477-1.644,17.239-1.09,1.136.11,2.456.372,3.855.649,4.412.873,9.41,1.863,12.827-.87,1.939-1.553.024-5.175-1.374-7.82a15.237,15.237,0,0,1-.718-1.452c-.474-2.138.07-5.133.551-7.775.213-1.172.415-2.279.521-3.266a110.753,110.753,0,0,0-.31-21.748,1.019,1.019,0,0,0-1.168-.875,1.033,1.033,0,0,0-.876,1.168,108.073,108.073,0,0,1,.3,21.233c-.1.912-.293,1.983-.5,3.118-.516,2.834-1.1,6.047-.532,8.6a9.622,9.622,0,0,0,.905,1.96c2.269,4.294,2.09,5.1,1.909,5.243-2.668,2.133-7.168,1.241-11.136.456-1.451-.288-2.82-.558-4.057-.678-6.009-.588-11.968.273-17.732,1.1l-.9.131c-6.2.886-12.3,3.175-18.2,5.39-10.124,3.8-19.691,7.394-30.1,4.789-5.936-1.484-10.137-4.165-15-7.271-1.055-.672-2.138-1.363-3.271-2.064a18.724,18.724,0,0,0-5.215-1.785,14.04,14.04,0,0,1-4.341-1.49c-.676-.509.043-2.454.519-3.742.52-1.409.9-2.428.485-3.251-.206-.409-.4-.785-.594-1.143a8.677,8.677,0,0,1-1.4-4.7c0-3.02,1.124-4.453,2.426-6.113a13.021,13.021,0,0,0,2.612-4.637c.544-1.9.179-6.178-.278-10.765-.1-.968-.179-1.784-.215-2.326a168.333,168.333,0,0,1-.342-18.17c.068-2.915-.051-8.383-.157-13.208-.074-3.4-.144-6.614-.144-8.619a1.032,1.032,0,1,0-2.065,0c0,2.026.07,5.251.145,8.665.1,4.8.223,10.246.156,13.114a171.82,171.82,0,0,0,.347,18.356c.036.558.121,1.4.219,2.393.311,3.11.83,8.313.35,9.993a11.022,11.022,0,0,1-2.253,3.931,10.815,10.815,0,0,0-1.228,13.055c.169.317.346.649.527,1.01a9.8,9.8,0,0,1-.531,1.7c-.73,1.975-1.729,4.678.179,6.109a14.7,14.7,0,0,0,5.1,1.846,17.469,17.469,0,0,1,4.616,1.535c1.124.694,2.2,1.379,3.245,2.048,5.017,3.2,9.35,5.968,15.612,7.533A31.584,31.584,0,0,0,964.355,1304.6Z" transform="translate(-926.259 -1211.343)" fill="#664238"/>
    </g>
    <g id="Group_59" data-name="Group 59" transform="translate(153.341 281.937)">
      <path id="Path_55" data-name="Path 55" d="M924.789,1562.52a1.033,1.033,0,0,0,1.032-1.033v-1.3c0-15.154,0-30.825-2.162-45.989a1.033,1.033,0,0,0-2.045.293c2.145,15.017,2.144,30.614,2.142,45.7v1.3A1.033,1.033,0,0,0,924.789,1562.52Z" transform="translate(-921.605 -1513.307)" fill="#664238"/>
    </g>
    <g id="Group_60" data-name="Group 60" transform="translate(80.96 288.786)">
      <path id="Path_56" data-name="Path 56" d="M1177.384,1577.017a.93.93,0,0,0,.147-.011,1.033,1.033,0,0,0,.877-1.168,17.937,17.937,0,0,0-1.246-4.109,16.462,16.462,0,0,1-1.1-3.532,42.758,42.758,0,0,1-.118-8.395c.092-1.844.188-3.752.129-5.567-.079-2.462-.387-4.958-.684-7.373a68.84,68.84,0,0,1-.683-8.243,1.032,1.032,0,0,0-2.065,0,70.314,70.314,0,0,0,.7,8.5c.292,2.369.593,4.818.67,7.188.056,1.729-.034,3.51-.128,5.4a44.246,44.246,0,0,0,.139,8.813,18.3,18.3,0,0,0,1.224,3.976,16.14,16.14,0,0,1,1.122,3.643A1.033,1.033,0,0,0,1177.384,1577.017Z" transform="translate(-1172.636 -1537.587)" fill="#664238"/>
    </g>
    <g id="Group_61" data-name="Group 61" transform="translate(36.09 275.107)">
      <path id="Path_57" data-name="Path 57" d="M1322.229,1544.833a1.033,1.033,0,0,0,1.033-1.033c0-14.161,2.959-41.126,6.635-53.373a1.033,1.033,0,1,0-1.979-.594c-4.04,13.466-6.721,41.4-6.721,53.967A1.033,1.033,0,0,0,1322.229,1544.833Z" transform="translate(-1321.196 -1489.097)" fill="#664238"/>
    </g>
    <g id="Group_62" data-name="Group 62" transform="translate(138.583 148.822)">
      <path id="Path_58" data-name="Path 58" d="M861.629,1078.469q.935,0,1.931-.048c11.6-.573,16.1-2.2,19.229-3.879a1.032,1.032,0,1,0-.975-1.82c-2.918,1.562-7.161,3.084-18.357,3.637-7.987.391-12.67-1.882-13.832-2.69-.126-8.252-3.639-23.582-5.729-31.461a1.033,1.033,0,0,0-2,.53c2.1,7.927,5.664,23.457,5.664,31.379a1.2,1.2,0,0,0,.411.87C848.8,1075.771,853.392,1078.469,861.629,1078.469Zm-12.232-4.98Z" transform="translate(-841.865 -1041.44)" fill="#664238"/>
    </g>
    <g id="Group_63" data-name="Group 63" transform="translate(135.317 96.213)">
      <path id="Path_59" data-name="Path 59" d="M976.864,903.94a1.032,1.032,0,0,0,1.021-1.2c-1.312-8.233-2.258-17.038.533-34.135a71.151,71.151,0,0,1,3.431-12.972l-1.947-.69.979.327-.992-.289a72.728,72.728,0,0,0-3.51,13.293c-2.841,17.4-1.874,26.387-.534,34.793A1.032,1.032,0,0,0,976.864,903.94Z" transform="translate(-974.541 -854.947)" fill="#664238"/>
    </g>
    <g id="Group_64" data-name="Group 64" transform="translate(117.131 87.94)">
      <path id="Path_60" data-name="Path 60" d="M997.39,916.2a1.032,1.032,0,0,0,.561-1.9c-14.338-9.266-22.173-43.1-21.477-63.279.22-6.368,1.035-14.912,2.662-19.793.057-.171.123-.4.2-.669.6-2.113.987-2.668,1.209-2.761,2.112-.47,3.508.778,5.124,2.221a15.814,15.814,0,0,0,2.535,1.97,21.194,21.194,0,0,0,5.682,1.732,22.1,22.1,0,0,1,4.53,1.267,1.033,1.033,0,1,0,.924-1.847,22.772,22.772,0,0,0-5.023-1.44,20.145,20.145,0,0,1-5.078-1.5,14.034,14.034,0,0,1-2.195-1.724c-1.781-1.591-3.8-3.4-6.958-2.694-1.652.367-2.305,2.681-2.737,4.213-.065.229-.12.428-.17.576-1.7,5.091-2.543,13.864-2.768,20.376-.7,20.228,6.885,55.045,22.419,65.084A1.032,1.032,0,0,0,997.39,916.2Z" transform="translate(-974.366 -825.623)" fill="#664238"/>
    </g>
    <g id="Group_65" data-name="Group 65" transform="translate(38.432 95.509)">
      <path id="Path_61" data-name="Path 61" d="M1245.775,920.421a1.032,1.032,0,0,0,1.012-1.245c-1.265-6.009-1.609-19.718-.738-29.339,1.045-11.517,4.847-25.257,6.8-28.546,1.441-2.421,5.51-4,9.3-5.231a34.052,34.052,0,0,1,6.362-1.348c-2.327,3.04-6.812,9.2-9.046,14.249a117.856,117.856,0,0,0-9.832,45.949,1.032,1.032,0,1,0,2.065,0,115.739,115.739,0,0,1,9.655-45.114c2.922-6.6,10.156-15.566,10.228-15.656a1.032,1.032,0,0,0,.124-1.106.98.98,0,0,0-.953-.576,36.474,36.474,0,0,0-9.24,1.638c-4.364,1.415-8.65,3.137-10.437,6.14-2.3,3.863-6.094,18.487-7.085,29.414-.9,9.957-.547,23.673.773,29.95A1.034,1.034,0,0,0,1245.775,920.421Z" transform="translate(-1243.492 -852.452)" fill="#664238"/>
    </g>
    <g id="Group_66" data-name="Group 66" transform="translate(64.528 92.585)">
      <path id="Path_62" data-name="Path 62" d="M1204.505,847.075a1.055,1.055,0,0,0,.2-.02,37.711,37.711,0,0,0,3.883-1.1,37.74,37.74,0,0,1,7.476-1.809,1.033,1.033,0,0,0-.224-2.053,39.477,39.477,0,0,0-7.88,1.894,36.435,36.435,0,0,1-3.661,1.041,1.033,1.033,0,0,0,.2,2.045Z" transform="translate(-1203.474 -842.089)" fill="#664238"/>
    </g>
    <g id="Group_67" data-name="Group 67" transform="translate(22.623 102.288)">
      <path id="Path_63" data-name="Path 63" d="M1311.227,926.717a1.033,1.033,0,0,0,1.011-.83c.687-3.436,1.33-6.844,1.936-10.067,1.407-7.474,2.623-13.928,3.771-17.373.233-.7.467-1.438.708-2.2,1.424-4.481,3.195-10.058,6.515-12.878a28.631,28.631,0,0,1,9.572-4.857,1.032,1.032,0,1,0-.535-1.994,30.231,30.231,0,0,0-10.374,5.277c-3.772,3.2-5.643,9.094-7.146,13.827-.239.752-.47,1.481-.7,2.172-1.191,3.577-2.418,10.1-3.84,17.644-.606,3.216-1.246,6.616-1.932,10.044a1.032,1.032,0,0,0,.809,1.215A1.082,1.082,0,0,0,1311.227,926.717Z" transform="translate(-1310.193 -876.483)" fill="#664238"/>
    </g>
    <g id="Group_68" data-name="Group 68" transform="translate(10.948 169.969)">
      <path id="Path_64" data-name="Path 64" d="M1403.034,1126.523c1.916,0,3.689-.527,4.148-1.857s-.535-2.673-2.962-3.966a16.72,16.72,0,0,1-3.375-2.541c-1.271-1.157-2.583-2.361-4.028-1.425h0c-2.771,1.791-3.068,3.572-2.829,4.751.523,2.579,4.026,4.328,7.061,4.86A11.514,11.514,0,0,0,1403.034,1126.523Zm-5.656-8.922.566.863a8.271,8.271,0,0,1,1.512,1.222,18.373,18.373,0,0,0,3.793,2.837c1.811.965,1.97,1.545,1.971,1.55a6.19,6.19,0,0,1-3.813.24c-2.709-.476-5.129-1.929-5.4-3.237-.2-1,.937-1.967,1.927-2.607Z" transform="translate(-1393.923 -1116.399)" fill="#664238"/>
    </g>
    <g id="Group_69" data-name="Group 69" transform="translate(10.128 175.177)">
      <path id="Path_65" data-name="Path 65" d="M1402.209,1146.606a1.939,1.939,0,0,0,2.089-1.453c.514-2.174-2.826-6.243-3.9-6.78a1.032,1.032,0,0,0-.941,1.838c.753.484,2.779,3.356,2.835,4.328-.024,0-.054,0-.087,0-2.416,0-9.477-2.056-11.136-5.159a2.622,2.622,0,0,1,.276-2.915,1.032,1.032,0,1,0-1.718-1.145,4.673,4.673,0,0,0-.379,5.035C1391.424,1144.416,1399.419,1146.606,1402.209,1146.606Z" transform="translate(-1388.685 -1134.862)" fill="#664238"/>
    </g>
    <g id="Group_70" data-name="Group 70" transform="translate(11.017 181.304)">
      <path id="Path_66" data-name="Path 66" d="M1402.018,1166.647a3.085,3.085,0,0,0,2.378-.9c.813-.909.833-2.311.058-4.165a1.033,1.033,0,0,0-1.906.8c.527,1.258.442,1.845.309,1.992-.223.251-1.137.311-2.279-.023-3.493-1.028-7.656-3.033-7.656-6.74a1.033,1.033,0,0,0-2.065,0c0,3.945,3.161,6.96,9.14,8.722A7.468,7.468,0,0,0,1402.018,1166.647Z" transform="translate(-1390.856 -1156.58)" fill="#664238"/>
    </g>
    <g id="Group_71" data-name="Group 71" transform="translate(13.629 187.25)">
      <path id="Path_67" data-name="Path 67" d="M1389.934,1185.511a4.6,4.6,0,0,0,.721-.055c.043-.007,4.178-.694,4.7-2.849.152-.631.056-1.587-1.262-2.553a1.033,1.033,0,1,0-1.221,1.667c.417.305.475.475.475.476a7.21,7.21,0,0,1-3.016,1.221,7.709,7.709,0,0,1-4.828-1.685,5.38,5.38,0,0,1-2.345-3.193,1.033,1.033,0,0,0-2.044.3,7.29,7.29,0,0,0,3.166,4.556A10.328,10.328,0,0,0,1389.934,1185.511Z" transform="translate(-1381.1 -1177.66)" fill="#664238"/>
    </g>
    <g id="Group_72" data-name="Group 72" transform="translate(23.148 189.18)">
      <path id="Path_68" data-name="Path 68" d="M1369.458,1186.7a1.033,1.033,0,0,0,.176-2.05,77.509,77.509,0,0,0-8.993-.013,1.03,1.03,0,0,0-.987,1.075,1.068,1.068,0,0,0,1.075.987,77.167,77.167,0,0,1,8.549-.013A1.177,1.177,0,0,0,1369.458,1186.7Z" transform="translate(-1359.653 -1184.5)" fill="#664238"/>
    </g>
    <g id="Group_73" data-name="Group 73" transform="translate(3.212 151.289)">
      <path id="Path_69" data-name="Path 69" d="M1358.738,1070.919a1.033,1.033,0,0,0,.84-1.631c-4.313-6.065-8.89-13.009-9.3-14.443a2.7,2.7,0,0,0-.033-1.108,1.773,1.773,0,0,1-.05-.438h0s.278-.39,2.228-.608,4.57-.258,7.353-.3c1.023-.016,2.062-.031,3.088-.056,4.516-.108,9.642-.233,11.063.478.842.422,2.163,2.674,2.951,4.019l.443.751c1.759,2.936,2.88,4.988,2.891,5.008a1.032,1.032,0,1,0,1.812-.989c-.011-.02-1.15-2.106-2.931-5.08l-.434-.735c-1.37-2.337-2.521-4.176-3.809-4.822-1.882-.941-6.586-.828-12.038-.7-1.019.025-2.052.04-3.068.056-2.834.043-5.512.083-7.552.312-1.955.218-3.084.661-3.658,1.436a2.441,2.441,0,0,0-.32,2.038,2.585,2.585,0,0,1,.046.31c-.2.452-.653,1.6,9.636,16.062A1.03,1.03,0,0,0,1358.738,1070.919Zm-8.483-16.169Z" transform="translate(-1348.126 -1050.183)" fill="#664238"/>
    </g>
    <g id="Group_74" data-name="Group 74" transform="translate(0 156.467)">
      <path id="Path_70" data-name="Path 70" d="M1446.868,1087.2a1.033,1.033,0,0,0,.922-1.494,37.657,37.657,0,0,0-5.168-7.073,32.631,32.631,0,0,1-4.8-6.59,5.453,5.453,0,0,1-.508-1.44,9.985,9.985,0,0,1,2.966,1.145,1.033,1.033,0,1,0,.925-1.847c-2.016-1.008-4.261-1.986-5.43-.846-1.008.983-.38,2.678.179,3.867a34.536,34.536,0,0,0,5.1,7.052,36.209,36.209,0,0,1,4.892,6.655A1.032,1.032,0,0,0,1446.868,1087.2Z" transform="translate(-1435.238 -1068.539)" fill="#664238"/>
    </g>
    <g id="Group_75" data-name="Group 75" transform="translate(4.32 154.192)">
      <path id="Path_71" data-name="Path 71" d="M1387.13,1070.744a1.033,1.033,0,0,0,.917-1.5,47.93,47.93,0,0,0-2.724-4.665c-.346-.484-.618-.933-.865-1.338-.859-1.412-1.671-2.747-4.1-2.761-5.766-.034-14.464.22-19.141.355l-2.169.061a1.033,1.033,0,0,0,.027,2.065h.027l2.174-.061c4.667-.136,13.356-.374,19.071-.355,1.274.008,1.545.452,2.348,1.771.27.442.57.934.948,1.464a46.478,46.478,0,0,1,2.568,4.408A1.032,1.032,0,0,0,1387.13,1070.744Z" transform="translate(-1358.043 -1060.473)" fill="#664238"/>
    </g>
    <g id="Group_76" data-name="Group 76" transform="translate(25.203 198.838)">
      <path id="Path_72" data-name="Path 72" d="M1326.932,1244.142a19.96,19.96,0,0,0,7.357-1.741,1.032,1.032,0,0,0-.87-1.873c-.055.027-5.535,2.531-8.894,1.135-5.37-2.237-7.394-11.94-8.735-18.359-.293-1.409-.563-2.7-.835-3.785a1.032,1.032,0,0,0-2,.5c.266,1.063.53,2.327.817,3.707,1.514,7.253,3.587,17.187,9.962,19.844A8.322,8.322,0,0,0,1326.932,1244.142Z" transform="translate(-1312.922 -1218.734)" fill="#664238"/>
    </g>
    <g id="Group_77" data-name="Group 77" transform="translate(75.545 173.98)">
      <path id="Path_73" data-name="Path 73" d="M1164.977,1154.568a7.159,7.159,0,0,0,1.4-.149c1.371-.274,3.318-4.236,4.008-6.2a25.885,25.885,0,0,0,1.2-5.665c.548-1.255.909-2.1,1.186-2.745.784-1.834.885-2.069,2.659-5.614a1.033,1.033,0,0,0-1.848-.925c-1.8,3.6-1.922,3.884-2.71,5.726-.287.671-.664,1.553-1.247,2.885a1.022,1.022,0,0,0-.083.335,24.286,24.286,0,0,1-1.107,5.318,16.345,16.345,0,0,1-2.64,4.891,2.443,2.443,0,0,1-2.212-.407c-.573-.649-.58-2.041-.019-3.724.813-2.439,4.354-7.681,4.39-7.733a1.087,1.087,0,0,0,.107-.206c.02-.051,2.024-5.2,3.548-8.244a1.033,1.033,0,0,0-1.847-.925c-1.461,2.921-3.278,7.529-3.584,8.313-.517.77-3.727,5.6-4.574,8.142-.821,2.46-.668,4.5.43,5.743A3.718,3.718,0,0,0,1164.977,1154.568Z" transform="translate(-1161.088 -1130.617)" fill="#664238"/>
    </g>
    <g id="Group_78" data-name="Group 78" transform="translate(122.172 89.752)">
      <path id="Path_74" data-name="Path 74" d="M1002.682,885.945a4.311,4.311,0,0,0,2.748-1.221c.948-.811.94-2.956.5-11.78-.081-1.623-.168-3.364-.245-5.182-.539-12.63,1.007-22.67,4.593-29.841a1.033,1.033,0,0,0-1.847-.924c-3.8,7.593-5.371,17.685-4.81,30.852.078,1.823.165,3.57.247,5.2.226,4.528.461,9.207.119,10.193-.474.387-1.1.765-1.584.586-1.771-.662-2.634-6.5-2.958-8.7-.07-.479-.132-.889-.186-1.2-2.135-12.1-1.8-29.28,3.754-40.391a1.033,1.033,0,0,0-1.847-.924c-5.767,11.533-6.135,29.24-3.941,41.674.053.3.11.688.177,1.144.661,4.47,1.591,9.324,4.279,10.328A2.831,2.831,0,0,0,1002.682,885.945Z" transform="translate(-995.981 -832.046)" fill="#664238"/>
    </g>
    <g id="Group_79" data-name="Group 79" transform="translate(39.434 97.482)">
      <path id="Path_75" data-name="Path 75" d="M1276.806,904.261c3.008,0,4.262-5.424,5.091-10.731l.032-.2c.579-3.676,2.765-16.307,6.534-24.479l.413-.911c1.042-2.323,2.468-5.5,4.539-6.539a1.033,1.033,0,1,0-.924-1.847c-2.729,1.365-4.33,4.935-5.5,7.542l-.4.892c-3.775,8.183-5.944,20.224-6.7,25.022l-.031.2c-1.39,8.883-2.985,8.985-3.052,8.985a1.032,1.032,0,1,0,0,2.065Z" transform="translate(-1275.773 -859.445)" fill="#664238"/>
    </g>
    <g id="Group_80" data-name="Group 80" transform="translate(114.69 82.007)">
      <path id="Path_76" data-name="Path 76" d="M975.46,815.144a1.033,1.033,0,1,0,0-2.065,56.715,56.715,0,0,1-20.319-3.83c-.906-.39-1.753-.768-2.561-1.127-4.6-2.05-7.931-3.531-13.2-3.531a1.033,1.033,0,0,0,0,2.065c4.832,0,7.991,1.406,12.362,3.352.814.362,1.669.743,2.583,1.137A58.084,58.084,0,0,0,975.46,815.144Z" transform="translate(-938.347 -804.591)" fill="#664238"/>
    </g>
    <g id="Group_81" data-name="Group 81" transform="translate(158.467 91.317)">
      <path id="Path_77" data-name="Path 77" d="M848.079,855.5A1.032,1.032,0,0,0,849,854.01c-4.448-8.9-16.391-16.416-26.079-16.416a1.033,1.033,0,0,0,0,2.065c8.841,0,20.164,7.137,24.232,15.274A1.033,1.033,0,0,0,848.079,855.5Z" transform="translate(-821.891 -837.594)" fill="#664238"/>
    </g>
    <g id="Group_82" data-name="Group 82" transform="translate(162.877 110.266)">
      <path id="Path_78" data-name="Path 78" d="M772.461,1100.073c16.192,0,26.865-12.315,31.723-36.6,1.98-9.906,1.66-23.482,1.378-35.46-.091-3.887-.178-7.558-.178-10.84,0-4.63,1.116-23.853,1.755-30.249,1.6-16.006,1.761-29.965.49-42.677-.938-9.383-2.615-20.412-7.944-31.07-.327-.653-.642-1.383-.969-2.137a19.332,19.332,0,0,0-3.471-5.971,1.032,1.032,0,0,0-1.46,1.46,17.66,17.66,0,0,1,3.037,5.333c.343.791.674,1.555,1.016,2.239,5.179,10.358,6.817,21.155,7.737,30.351,1.257,12.573,1.1,26.4-.49,42.267-.66,6.6-1.766,25.666-1.766,30.453,0,3.306.086,6.99.179,10.889.28,11.871.6,25.325-1.339,35.005-4.638,23.186-14.629,34.944-29.7,34.944a1.033,1.033,0,0,0,0,2.065Z" transform="translate(-771.428 -904.766)" fill="#664238"/>
    </g>
    <g id="Group_83" data-name="Group 83" transform="translate(167.124 246.828)">
      <path id="Path_79" data-name="Path 79" d="M798.99,1397.21c5.967,0,10.713-1.984,13.021-5.445a1.033,1.033,0,0,0-1.718-1.146c-1.918,2.876-6.037,4.526-11.3,4.526-6.3,0-12.3-2.4-14.587-5.832a1.032,1.032,0,0,0-1.718,1.145C785.794,1395.122,793.114,1397.21,798.99,1397.21Z" transform="translate(-782.512 -1388.854)" fill="#664238"/>
    </g>
    <g id="Group_84" data-name="Group 84" transform="translate(156.116 240.456)">
      <path id="Path_80" data-name="Path 80" d="M883.712,1428.688a1.032,1.032,0,0,0,.461-.109c5.854-2.925,7.176-10.4,8.239-16.409l.22-1.236c2.493-13.709,2.481-26.858,2.468-40.778V1367.3a1.033,1.033,0,0,0-2.065,0v2.861c.012,13.824.023,26.88-2.435,40.407l-.223,1.245c-.982,5.551-2.2,12.459-7.129,14.921a1.033,1.033,0,0,0,.462,1.956Z" transform="translate(-882.679 -1366.266)" fill="#664238"/>
    </g>
    <g id="Group_85" data-name="Group 85" transform="translate(167.288 248.135)">
      <path id="Path_81" data-name="Path 81" d="M819.3,1423.484a1.032,1.032,0,1,0,0-2.065c-2.753,0-5.779-3.407-7.232-5.045-5.091-5.726-9.345-12.2-13.46-18.454q-1.31-1.993-2.626-3.976a1.033,1.033,0,0,0-1.718,1.146q1.317,1.974,2.619,3.965c4.155,6.319,8.452,12.853,13.641,18.69C812.307,1419.751,815.621,1423.484,819.3,1423.484Z" transform="translate(-794.093 -1393.486)" fill="#664238"/>
    </g>
    <g id="Group_86" data-name="Group 86" transform="translate(166.342 268.556)">
      <path id="Path_82" data-name="Path 82" d="M837.089,1489.851a1.033,1.033,0,0,0,.327-2.013c-8.887-2.962-12.62-10.6-16.571-18.681-.44-.9-.883-1.807-1.336-2.711a1.032,1.032,0,1,0-1.847.922c.45.9.89,1.8,1.328,2.7,4.148,8.485,8.065,16.5,17.774,19.735A1.061,1.061,0,0,0,837.089,1489.851Z" transform="translate(-817.552 -1465.876)" fill="#664238"/>
    </g>
    <g id="Group_87" data-name="Group 87" transform="translate(164.516 286.331)">
      <path id="Path_83" data-name="Path 83" d="M858.659,1543.063a1.033,1.033,0,0,0,0-2.065c-4.9,0-10.063-7.595-11.613-11.468a1.032,1.032,0,1,0-1.917.766C846.728,1534.3,852.356,1543.063,858.659,1543.063Z" transform="translate(-845.054 -1528.882)" fill="#664238"/>
    </g>
    <g id="Group_88" data-name="Group 88" transform="translate(187.524 252.851)">
      <path id="Path_84" data-name="Path 84" d="M791.746,1420.06a1.033,1.033,0,0,0,.262-2.031c-1.667-.438-4.625-4.192-6.157-7.253a1.032,1.032,0,1,0-1.847.922c.95,1.9,4.363,7.509,7.479,8.329A1.045,1.045,0,0,0,791.746,1420.06Z" transform="translate(-783.894 -1410.204)" fill="#664238"/>
    </g>
    <g id="Group_89" data-name="Group 89" transform="translate(157.578 273.128)">
      <path id="Path_85" data-name="Path 85" d="M792.709,1510.824c5.036,0,13.594-4.2,13.686-4.244,7.385-3.692,19.208-13.638,21.135-23.263a1.033,1.033,0,0,0-2.025-.406c-1.713,8.56-12.735,18.173-20.033,21.822-2,1-10.183,4.594-13.631,3.957a1.033,1.033,0,1,0-.38,2.03A6.854,6.854,0,0,0,792.709,1510.824Z" transform="translate(-790.618 -1482.082)" fill="#664238"/>
    </g>
    <g id="Group_90" data-name="Group 90" transform="translate(163.786 260.641)">
      <path id="Path_86" data-name="Path 86" d="M784.925,1465.934a1,1,0,0,0,.284-.04c10.362-2.959,20.581-10.295,27.333-19.621a52.5,52.5,0,0,0,3.877-6.99,1.033,1.033,0,0,0-1.875-.866,51.407,51.407,0,0,1-3.674,6.644c-6.49,8.964-16.3,16.009-26.228,18.848a1.032,1.032,0,0,0,.283,2.025Z" transform="translate(-783.893 -1437.817)" fill="#664238"/>
    </g>
    <g id="Group_91" data-name="Group 91" transform="translate(166.634 253.688)">
      <path id="Path_87" data-name="Path 87" d="M829.868,1429.611a1.035,1.035,0,0,0,.3-.043c5.413-1.625,15.765-8.873,15.765-15.364a1.033,1.033,0,0,0-2.065,0c0,5.254-9.4,11.917-14.294,13.385a1.033,1.033,0,0,0,.3,2.022Z" transform="translate(-828.836 -1413.171)" fill="#664238"/>
    </g>
    <g id="Group_92" data-name="Group 92" transform="translate(188.688 110.919)">
      <path id="Path_88" data-name="Path 88" d="M757.29,1017.594a6.265,6.265,0,0,0,4.377-1.609c4.82-4.4,2.948-16.552,2.048-22.393-.078-.51-.147-.959-.2-1.338-1.7-11.925-2.551-24.25-3.37-36.169-.492-7.152-1-14.547-1.688-21.771-.761-7.986-2.635-19.466-10.1-26.931a1.033,1.033,0,0,0-1.46,1.46c6.992,6.994,8.773,18,9.5,25.667.685,7.2,1.193,14.578,1.683,21.716.822,11.957,1.672,24.321,3.385,36.321.055.385.125.842.2,1.358.779,5.059,2.6,16.9-1.4,20.554-1.189,1.084-2.84,1.342-5.048.791a1.032,1.032,0,0,0-.5,2A10.613,10.613,0,0,0,757.29,1017.594Z" transform="translate(-746.595 -907.079)" fill="#664238"/>
    </g>
    <g id="Group_93" data-name="Group 93" transform="translate(189.37 111.114)">
      <path id="Path_89" data-name="Path 89" d="M741.028,972.438a1.5,1.5,0,0,0,.277-.027c1.113-.214,2.658-2.174,4.592-5.828a1.035,1.035,0,0,0-.594-1.464,10.1,10.1,0,0,1-4.689-3.538,16.652,16.652,0,0,1-2.709-6.14l-.206-.723c-1.377-4.818-1.535-10.508-1.689-16.01-.338-12.084-.686-24.578-13.187-30.828a1.033,1.033,0,1,0-.923,1.847c11.395,5.7,11.711,17.035,12.046,29.038.157,5.63.32,11.451,1.768,16.52l.2.719a18.592,18.592,0,0,0,2.977,6.722,11.7,11.7,0,0,0,4.63,3.884,20.975,20.975,0,0,1-2.435,3.586c-2.038-1.791-5.218-5.03-6.438-8.689a1.033,1.033,0,1,0-1.959.654c1.462,4.386,5.3,8.12,7.46,9.956A1.332,1.332,0,0,0,741.028,972.438Z" transform="translate(-721.33 -907.77)" fill="#664238"/>
    </g>
    <g id="Group_94" data-name="Group 94" transform="translate(155.69 101.681)">
      <path id="Path_90" data-name="Path 90" d="M858.753,882.694a1.033,1.033,0,0,0,.73-1.763c-5.61-5.608-22.434-8.084-26.122-5.689a1.033,1.033,0,1,0,1.125,1.732c2.789-1.812,18.389.271,23.537,5.417A1.029,1.029,0,0,0,858.753,882.694Z" transform="translate(-832.892 -874.332)" fill="#664238"/>
    </g>
    <g id="Group_95" data-name="Group 95" transform="translate(130.103 79.796)">
      <path id="Path_91" data-name="Path 91" d="M939.444,815.84a1.032,1.032,0,0,0,.326-2.012,33.854,33.854,0,0,0-6.148-.6,17.171,17.171,0,0,0-1.306-6.289c-2.2-5.136-8.576-10.571-14.2-10.166-2.794.2-5.585,2.369-8.294,6.432a1.033,1.033,0,0,0,1.718,1.145c2.3-3.457,4.63-5.365,6.726-5.518,4.548-.322,10.272,4.521,12.152,8.918a15.2,15.2,0,0,1,1.123,6.395,1.034,1.034,0,0,0,1.006,1.117,42.265,42.265,0,0,1,6.572.522A1.021,1.021,0,0,0,939.444,815.84Z" transform="translate(-909.647 -796.754)" fill="#664238"/>
    </g>
    <g id="Group_96" data-name="Group 96" transform="translate(125.399 77.526)">
      <path id="Path_92" data-name="Path 92" d="M943.917,810.117a1.033,1.033,0,0,0,1.032-1.032c0-5.388-2.691-10.758-7.382-14.733a22.615,22.615,0,0,0-17.97-5.387c-4.826.8-8.829,3.536-10.2,6.959a1.032,1.032,0,1,0,1.917.766c1.107-2.767,4.49-5,8.62-5.688a20.549,20.549,0,0,1,16.3,4.926c4.228,3.582,6.652,8.377,6.652,13.157A1.033,1.033,0,0,0,943.917,810.117Z" transform="translate(-909.326 -788.707)" fill="#664238"/>
    </g>
    <g id="Group_97" data-name="Group 97" transform="translate(167.01 110.873)">
      <path id="Path_93" data-name="Path 93" d="M823.744,1043.14a1.033,1.033,0,0,0,1.025-.917,132.8,132.8,0,0,0,.478-18.965c-.1-3.487-.178-6.5.014-9.005l.248-3.2c2.022-26.038,4.538-58.443-3.069-82.783-3.044-9.742-6.676-16.014-17.136-21.246a1.033,1.033,0,1,0-.924,1.847c9.855,4.929,13.15,10.608,16.089,20.015,7.489,23.961,4.989,56.147,2.981,82.007l-.247,3.2c-.2,2.612-.118,5.675-.02,9.22a129.316,129.316,0,0,1-.465,18.677,1.031,1.031,0,0,0,.91,1.141A1.111,1.111,0,0,0,823.744,1043.14Z" transform="translate(-803.809 -906.917)" fill="#664238"/>
    </g>
  </g>
  <g id="Group_166" data-name="Group 166" transform="translate(0 0)" opacity="0.2">
    <g id="Group_99" data-name="Group 99" transform="translate(75.111 304.518)">
      <path id="Path_94" data-name="Path 94" d="M1945.946,1439.586c5,0,12.04-.694,19.483-1.426,7.826-.771,15.913-1.565,21.23-1.46,6,.122,17.241,1.221,17.354,1.232a1.032,1.032,0,0,0,.2-2.054c-.113-.012-11.432-1.117-17.514-1.242-5.454-.109-13.589.694-21.473,1.471-7.217.71-14.655,1.444-19.59,1.414-5.189-.034-10.755-.583-16.65-1.167-7.483-.74-15.219-1.5-22.4-1.167-13.782.651-24.769,1.094-25.208,1.1a1.033,1.033,0,0,0-.016,2.065h.008c.563,0,12.455-.492,25.313-1.1,7.013-.331,14.685.426,22.1,1.16,5.942.587,11.555,1.142,16.839,1.176Z" transform="translate(-1880.354 -1434.625)" fill="#664238"/>
    </g>
    <g id="Group_100" data-name="Group 100" transform="translate(0 307.603)">
      <path id="Path_95" data-name="Path 95" d="M2534.743,1447.866c3.844,0,7.866-.078,12.237-.237a1.03,1.03,0,0,0,.994-1.069,1.008,1.008,0,0,0-1.069-.994c-5.051.182-9.637.254-14.005.227h-.006a1.032,1.032,0,0,0-.007,2.065Q2533.808,1447.866,2534.743,1447.866Z" transform="translate(-2531.86 -1445.561)" fill="#664238"/>
    </g>
    <g id="Group_101" data-name="Group 101" transform="translate(532.941 125.403)">
      <path id="Path_96" data-name="Path 96" d="M190.02,875.95a1.029,1.029,0,0,0,.73-.3c3.408-3.408,7.554-5.8,11.565-8.113s8.154-4.7,11.556-8.106a62.729,62.729,0,0,0,7.994-10.721c3.667-5.725,7.13-11.133,12.828-14.3,5.946-3.3,12.6-4.611,19.039-5.874a101.1,101.1,0,0,0,12.535-3.022c4.6-1.532,8.571-4.7,12.413-7.764a58.972,58.972,0,0,1,8.115-5.768c12.882-7.025,32.565-10.225,45.4-10.225a1.033,1.033,0,0,0,0-2.065c-13.09,0-33.192,3.279-46.391,10.478a60.41,60.41,0,0,0-8.414,5.965c-3.7,2.952-7.53,6-11.779,7.42a99.723,99.723,0,0,1-12.28,2.955c-6.594,1.294-13.411,2.632-19.644,6.1-6.153,3.417-9.921,9.3-13.564,14.989a61.153,61.153,0,0,1-7.715,10.374c-3.209,3.209-7.055,5.428-11.127,7.777-4.126,2.379-8.393,4.841-11.993,8.442a1.032,1.032,0,0,0,.73,1.763Z" transform="translate(-188.987 -799.692)" fill="#664238"/>
    </g>
    <g id="Group_102" data-name="Group 102" transform="translate(47.35 75.371)">
      <path id="Path_97" data-name="Path 97" d="M2047.526,648.212a195.269,195.269,0,0,0,19.562-1.435c7.29-.772,14.171-1.5,19.315-1.226a33.1,33.1,0,0,1,5.905,1.038c1.2.285,2.44.58,3.7.8,6.5,1.111,36.3.126,41.943-3.544,1.312-.854,1.885-1.807,1.7-2.835-.305-1.7-2.565-2.9-7.556-4.021a156.6,156.6,0,0,0-22.928-3.21c-1.471-.111-3.147-.106-4.925-.1-4.191.013-8.928.038-11.952-1.548-1.033-.542-1.284-1.469-1.608-2.938a9.168,9.168,0,0,0-.9-2.679c-3.367-5.872-14.8-4.33-19-2.7h0a32.937,32.937,0,0,1-9.307,1.661c-3.7.308-7.53.627-11.06,2.279-.421.2-1.7.8-1.75,1.978-.051,1.241,1.191,1.953,2.393,2.642.253.144.616.352.877.529a14.407,14.407,0,0,1-4.035,1.453c-.372.1-.688.182-.907.25-1.522.474-3.109.83-4.789,1.207a33.439,33.439,0,0,0-9.434,3.123c-2.969,1.7-4.228,3.8-3.454,5.745.848,2.132,3.275,3.088,16.109,3.494C2046.108,648.2,2046.812,648.212,2047.526,648.212Zm36.5-4.785c-4.91,0-10.883.633-17.154,1.3-7.393.783-15.026,1.592-21.384,1.392-11.941-.378-13.907-1.321-14.254-2.194-.411-1.033,1.123-2.364,2.561-3.19a31.938,31.938,0,0,1,8.859-2.9c1.647-.369,3.349-.751,4.952-1.25.2-.061.483-.136.819-.225,2.633-.694,5.049-1.439,5.687-2.922.582-1.354-.865-2.183-2.027-2.849a11.3,11.3,0,0,1-1.188-.747,3.639,3.639,0,0,1,.394-.21c3.193-1.495,6.671-1.785,10.353-2.091a34.952,34.952,0,0,0,9.887-1.795c4.447-1.729,14.08-2.358,16.466,1.8a7.523,7.523,0,0,1,.672,2.1c.325,1.473.73,3.306,2.665,4.32,3.481,1.826,8.5,1.8,12.921,1.784,1.73-.005,3.369-.014,4.76.091a154.415,154.415,0,0,1,22.538,3.144c5.762,1.293,6.058,2.345,6.069,2.392h0s-.072.269-.795.738c-4.856,3.159-33.914,4.359-40.468,3.24-1.2-.2-2.4-.491-3.571-.77a35.209,35.209,0,0,0-6.273-1.091Q2085.321,643.426,2084.023,643.427Z" transform="translate(-2029.089 -622.336)" fill="#664238"/>
    </g>
    <g id="Group_103" data-name="Group 103" transform="translate(218.33 0)">
      <path id="Path_98" data-name="Path 98" d="M1482.228,381.8a82.566,82.566,0,0,0,10.087-.838c2.546-.313,5.179-.637,8.168-.868,12.342-.948,14.979-3.021,15.887-4.5a2.968,2.968,0,0,0,.184-2.786c-1.818-4.416-12.636-5.152-24.09-5.931-7.788-.53-15.843-1.078-18.273-2.87a4.083,4.083,0,0,1-.8-1.921c-.737-2.784-1.789-7.017-10.453-6.931h0c-3.914.026-8.764-.1-16.679.518-1.936.151-3.595.263-5.106.366a116.172,116.172,0,0,0-13.51,1.488c-2.226.379-3.62.854-3.689,2.052-.085,1.456,1.792,2.07,5.7,3.214.731.214,1.659.485,2.428.742-2.245.5-6.46,1.067-10.022,1.544-6.846.915-13.924,1.861-17.011,3.184l-.25.107c-2.623,1.117-4.992,2.276-5.167,4.156a2.968,2.968,0,0,0,1.648,2.69c2.93,1.953,3.107,2.027,6.385,2.73,8.185,1.755,16.331,1.379,24.217,1.012a144.766,144.766,0,0,1,15.152-.169c1.171.069,3.424,0,6.277-.087,5.313-.163,13.337-.408,15.375.405A35.017,35.017,0,0,0,1482.228,381.8Zm-19.093-24.577c6.835,0,7.592,2.864,8.261,5.395a5.129,5.129,0,0,0,1.568,3.056c2.918,2.148,10.537,2.667,19.36,3.267,9.352.636,20.991,1.427,22.321,4.657a.916.916,0,0,1-.034.917c-.585.95-3.219,2.671-14.288,3.522-3.036.233-5.692.56-8.262.876-8.127,1-14,1.724-22.605-1.717-2.252-.9-8.669-.786-16.2-.553-2.69.083-5.017.153-6.093.091a145.739,145.739,0,0,0-15.368.167c-7.749.359-15.763.731-23.689-.969-2.989-.64-2.989-.64-5.581-2.368-.7-.463-.838-.747-.828-.841.05-.538,1.369-1.361,3.919-2.448l.253-.108c2.829-1.212,10.077-2.181,16.472-3.037,7.2-.962,11.323-1.548,12.484-2.419a1.31,1.31,0,0,0,.546-1.291c-.2-1.123-1.631-1.582-5.129-2.605-.956-.28-2.331-.681-3.291-1.042.277-.065.621-.134,1.045-.206a114.765,114.765,0,0,1,13.3-1.464c1.516-.1,3.184-.216,5.128-.368,7.837-.61,12.631-.483,16.534-.512Z" transform="translate(-1399.627 -355.16)" fill="#664238"/>
    </g>
    <g id="Group_104" data-name="Group 104" transform="translate(505.133 32.728)">
      <path id="Path_99" data-name="Path 99" d="M526.236,499.4c6.244,0,14.494-.7,16.961-3.262a2.86,2.86,0,0,0,.836-2.512c-.664-4.03-7.184-4.856-12.424-5.52-1.245-.157-2.321-.294-3.128-.455a18.007,18.007,0,0,1-6.082-2.823,20.94,20.94,0,0,0-6.366-3.019,98.584,98.584,0,0,0-14.811-2.329,6.787,6.787,0,0,0-1.532-4.808c-2.436-2.919-7.427-4.021-14.831-3.278-4.711.473-6.8,3.012-9.017,5.7-2.718,3.3-5.8,7.038-14.815,8.69-.146.027-14.871,3.234-16.562,7.181a3.054,3.054,0,0,0,.213,3.128c2.27,3.2,11.661,3.027,21.473,2.363,1.137-.077,1.988-.136,2.4-.136,5.684,0,10.84-.14,15.827-.275,11.932-.325,22.239-.6,35.528,1.059A57.018,57.018,0,0,0,526.236,499.4Zm-37.185-26.166c5.447,0,7.917,1.415,9.035,2.739a4.865,4.865,0,0,1,.961,4.185,1.036,1.036,0,0,0,.945,1.311,95.261,95.261,0,0,1,15.563,2.349,19.087,19.087,0,0,1,5.748,2.76,19.869,19.869,0,0,0,6.773,3.1c.879.176,1.989.317,3.273.479,3.827.485,10.233,1.3,10.645,3.806a.8.8,0,0,1-.286.746c-2.647,2.752-16.431,2.987-21.541,2.349-13.446-1.681-24.324-1.385-35.841-1.074-4.972.135-10.114.274-15.77.274-.441,0-1.341.059-2.544.141-4.386.3-17.735,1.2-19.648-1.5-.089-.126-.3-.421,0-1.12.9-2.09,11.129-5.245,15.036-5.962,9.759-1.789,13.24-6.014,16.037-9.409,2.1-2.553,3.765-4.57,7.63-4.959h0C486.546,473.3,487.869,473.238,489.051,473.238Z" transform="translate(-444.142 -471.174)" fill="#664238"/>
    </g>
    <g id="Group_105" data-name="Group 105" transform="translate(123.101 329.722)">
      <path id="Path_100" data-name="Path 100" d="M2101.232,1565.451a1.033,1.033,0,0,0,.462-1.956c-7.8-3.9-7.848-9.8-7.9-16.625-.028-3.618-.058-7.36-1.331-10.924-1.778-4.979-4.771-8.233-8.215-11.676a1.032,1.032,0,0,0-1.46,1.46c3.38,3.38,6.094,6.328,7.73,10.91,1.155,3.236,1.183,6.8,1.21,10.246.055,6.878.11,13.989,9.045,18.457A1.024,1.024,0,0,0,2101.232,1565.451Z" transform="translate(-2082.484 -1523.967)" fill="#664238"/>
    </g>
    <g id="Group_106" data-name="Group 106" transform="translate(114.688 333.485)">
      <path id="Path_101" data-name="Path 101" d="M2131.62,1556.424a1.032,1.032,0,0,0,.463-1.956c-4.063-2.031-6.749-5.364-9.594-8.892a44.122,44.122,0,0,0-7.743-8.063,1.032,1.032,0,0,0-1.24,1.651,42.6,42.6,0,0,1,7.376,7.708c2.857,3.545,5.812,7.21,10.278,9.443A1.025,1.025,0,0,0,2131.62,1556.424Z" transform="translate(-2113.094 -1537.307)" fill="#664238"/>
    </g>
    <g id="Group_107" data-name="Group 107" transform="translate(110.256 342.123)">
      <path id="Path_102" data-name="Path 102" d="M2128.45,1593.022h.28a1.033,1.033,0,1,0,0-2.065h-.141a36.457,36.457,0,0,1-4.8-.211c-2.866-.423-3.859-3.522-4.908-6.8a16.4,16.4,0,0,0-2.179-4.987,8.69,8.69,0,0,0-3.439-2.542,12.032,12.032,0,0,1-2.072-1.194,25.856,25.856,0,0,1-4.01-4.142c-.807-.965-1.641-1.964-2.525-2.847a1.032,1.032,0,0,0-1.46,1.46c.819.819,1.588,1.738,2.4,2.712a27.284,27.284,0,0,0,4.354,4.469,14.058,14.058,0,0,0,2.405,1.4,6.732,6.732,0,0,1,2.716,1.955,15.267,15.267,0,0,1,1.844,4.349c1.14,3.564,2.433,7.605,6.571,8.217A35.857,35.857,0,0,0,2128.45,1593.022Z" transform="translate(-2102.892 -1567.927)" fill="#664238"/>
    </g>
    <g id="Group_108" data-name="Group 108" transform="translate(133.067 328.393)">
      <path id="Path_103" data-name="Path 103" d="M2072.527,1551.219a1.033,1.033,0,0,0,.925-.57,8.148,8.148,0,0,1,2.221-2.424,9.619,9.619,0,0,0,2.894-3.377c1.413-3.18,1.12-6.137.837-9a22.345,22.345,0,0,1-.1-5.448,8.156,8.156,0,0,1,2.248-3.939c1.339-1.593,2.857-3.4,2.857-6.171a1.032,1.032,0,1,0-2.065,0c0,2.021-1.1,3.327-2.372,4.841a9.821,9.821,0,0,0-2.712,4.976,24.222,24.222,0,0,0,.085,5.944c.269,2.713.521,5.276-.669,7.956a7.785,7.785,0,0,1-2.334,2.635,9.832,9.832,0,0,0-2.74,3.08,1.032,1.032,0,0,0,.922,1.5Z" transform="translate(-2071.495 -1519.258)" fill="#664238"/>
    </g>
    <g id="Group_109" data-name="Group 109" transform="translate(139.49 331.492)">
      <path id="Path_104" data-name="Path 104" d="M2030.916,1551.8a1.033,1.033,0,0,0,1.032-1.032c0-1.711,1.038-2.111,3.029-2.723a7.633,7.633,0,0,0,3.313-1.642,5.043,5.043,0,0,0,1.291-3.156,3.542,3.542,0,0,1,.556-1.8c.94-1.174,1.933-2.214,2.895-3.22a26,26,0,0,0,4.974-6.484,1.033,1.033,0,0,0-1.847-.925,24.385,24.385,0,0,1-4.621,5.983c-.991,1.038-2.017,2.111-3.014,3.356a5.32,5.32,0,0,0-.99,2.811,3.12,3.12,0,0,1-.7,1.975,6.158,6.158,0,0,1-2.461,1.128c-1.893.582-4.486,1.381-4.486,4.7A1.033,1.033,0,0,0,2030.916,1551.8Z" transform="translate(-2029.883 -1530.244)" fill="#664238"/>
    </g>
    <g id="Group_110" data-name="Group 110" transform="translate(139.109 330.893)">
      <path id="Path_105" data-name="Path 105" d="M1992.81,1565.707a2.658,2.658,0,0,0,2.694-1.81,3.77,3.77,0,0,1,.445-.771,17.885,17.885,0,0,1,1.533-1.63,11.677,11.677,0,0,0,2.561-3.217,10.889,10.889,0,0,0,.885-3.115,5.935,5.935,0,0,1,1.39-3.475c1.635-1.634,3.881-2.487,6.26-3.391,3.427-1.3,6.971-2.648,8.885-6.479a19.021,19.021,0,0,0,1.007-4.992c.243-1.9.812-6.339,1.64-6.646a1.032,1.032,0,1,0-.005-2.064c-2.6,0-3.127,4.1-3.682,8.447a20.131,20.131,0,0,1-.807,4.332c-1.554,3.108-4.574,4.255-7.771,5.471-2.478.941-5.039,1.914-6.987,3.861a7.81,7.81,0,0,0-1.963,4.577,9.224,9.224,0,0,1-.7,2.552,9.773,9.773,0,0,1-2.155,2.662,19.59,19.59,0,0,0-1.7,1.816,5.723,5.723,0,0,0-.7,1.171c-.3.624-.3.636-.831.636a1.033,1.033,0,1,0,0,2.065Z" transform="translate(-1991.778 -1528.118)" fill="#664238"/>
    </g>
    <g id="Group_111" data-name="Group 111" transform="translate(159.136 326.366)">
      <path id="Path_106" data-name="Path 106" d="M2009.51,1529.5a1.033,1.033,0,0,0,.922-1.493,16.115,16.115,0,0,1-1.283-6.737c-.139-2.942-.281-5.983-2.381-8.783a1.032,1.032,0,0,0-1.651,1.24c1.718,2.292,1.84,4.89,1.97,7.64a17.943,17.943,0,0,0,1.5,7.563A1.031,1.031,0,0,0,2009.51,1529.5Z" transform="translate(-2004.911 -1512.072)" fill="#664238"/>
    </g>
    <g id="Group_112" data-name="Group 112" transform="translate(135.271 322.938)">
      <path id="Path_107" data-name="Path 107" d="M2094.107,1516.112a1.032,1.032,0,0,0,.922-1.495,15.105,15.105,0,0,0-1.092-1.74c-.941-1.366-1.914-2.779-1.467-4.036a6.529,6.529,0,0,1,.546-1.081,5.044,5.044,0,0,0,.886-2.694,4,4,0,0,0-1.4-2.654c-.48-.523-.934-1.015-.934-1.462a1.033,1.033,0,1,0-2.065,0,4.3,4.3,0,0,0,1.48,2.86c.418.455.85.924.85,1.256a3.15,3.15,0,0,1-.6,1.654,8.355,8.355,0,0,0-.706,1.426c-.8,2.255.591,4.278,1.712,5.9a13.876,13.876,0,0,1,.944,1.492A1.033,1.033,0,0,0,2094.107,1516.112Z" transform="translate(-2089.508 -1499.918)" fill="#664238"/>
    </g>
    <g id="Group_113" data-name="Group 113" transform="translate(128.96 326.23)">
      <path id="Path_108" data-name="Path 108" d="M2120.375,1522.159a1.034,1.034,0,0,0,.98-.706c.229-.69.433-1.271.608-1.768,1.178-3.349,1.152-3.619-.651-7.224l-.151-.3a1.032,1.032,0,0,0-1.847.922l.151.3c1.483,2.962,1.483,2.962.55,5.616-.178.507-.386,1.1-.62,1.8a1.034,1.034,0,0,0,.654,1.307A1.074,1.074,0,0,0,2120.375,1522.159Z" transform="translate(-2119.205 -1511.59)" fill="#664238"/>
    </g>
    <g id="Group_114" data-name="Group 114" transform="translate(109.896 335.556)">
      <path id="Path_109" data-name="Path 109" d="M2162.955,1553.146a6.117,6.117,0,0,0,2.288-.471,1.032,1.032,0,1,0-.767-1.917c-2.457.981-4.009-.419-6.343-2.79a15.648,15.648,0,0,0-3.921-3.211,1.033,1.033,0,1,0-.925,1.847,13.947,13.947,0,0,1,3.373,2.811C2158.405,1551.188,2160.333,1553.146,2162.955,1553.146Z" transform="translate(-2152.717 -1544.648)" fill="#664238"/>
    </g>
    <g id="Group_115" data-name="Group 115" transform="translate(101.117 346.256)">
      <path id="Path_110" data-name="Path 110" d="M2164.215,1597.671a1.033,1.033,0,0,0,.464-1.956,7.3,7.3,0,0,0-4.082-.406,5.622,5.622,0,0,1-3.147-.258,8.531,8.531,0,0,1-3.056-3.311,12.482,12.482,0,0,0-2.545-3.163,6.029,6.029,0,0,0-3.77-1.188,4.952,4.952,0,0,1-2.38-.538,8.68,8.68,0,0,1-1.8-1.725,9.355,9.355,0,0,0-2.809-2.439,1.032,1.032,0,1,0-.922,1.848,7.559,7.559,0,0,1,2.172,1.945,10.285,10.285,0,0,0,2.268,2.121,6.776,6.776,0,0,0,3.337.849,4.213,4.213,0,0,1,2.584.714,10.663,10.663,0,0,1,2.122,2.679,10.448,10.448,0,0,0,3.8,4.013,7.3,7.3,0,0,0,4.335.511,5.755,5.755,0,0,1,2.972.2A1.041,1.041,0,0,0,2164.215,1597.671Z" transform="translate(-2139.592 -1582.577)" fill="#664238"/>
    </g>
    <g id="Group_116" data-name="Group 116" transform="translate(103.038 355.033)">
      <path id="Path_111" data-name="Path 111" d="M2186.711,1618.83a2.915,2.915,0,0,0,.712-.085,2.207,2.207,0,0,0,1.5-2.044c.009-.059.023-.132.035-.2a6.457,6.457,0,0,1,3.5-.748h.2a1.033,1.033,0,1,0,0-2.065h-.195a8.739,8.739,0,0,0-4.63,1.057,1.919,1.919,0,0,0-.945,1.607c-.021.116-.05.292-.083.4a5.487,5.487,0,0,1-1.679-.383,7.06,7.06,0,0,0-2.206-.491,1.033,1.033,0,1,0,0,2.065,5.755,5.755,0,0,1,1.547.383A7.24,7.24,0,0,0,2186.711,1618.83Z" transform="translate(-2181.89 -1613.692)" fill="#664238"/>
    </g>
    <g id="Group_117" data-name="Group 117" transform="translate(116.891 364.223)">
      <path id="Path_112" data-name="Path 112" d="M2136.2,1651.383a3.456,3.456,0,0,0,.549-.046,4.268,4.268,0,0,0,2.422-1.7c.706-.808,1.178-1.3,1.935-1.3a1.033,1.033,0,0,0,0-2.065,4.6,4.6,0,0,0-3.49,2.011c-.432.494-.839.96-1.206,1.021-.48.081-.819-.117-1.43-.5a4.85,4.85,0,0,0-2.309-.885,2.817,2.817,0,0,0-1.675.458,1.283,1.283,0,0,1-.589.226,1.033,1.033,0,1,0,0,2.065,3.141,3.141,0,0,0,1.584-.481,1.163,1.163,0,0,1,.543-.208,3.008,3.008,0,0,1,1.354.578A4.26,4.26,0,0,0,2136.2,1651.383Z" transform="translate(-2129.376 -1646.267)" fill="#664238"/>
    </g>
    <g id="Group_118" data-name="Group 118" transform="translate(147.477 343.377)">
      <path id="Path_113" data-name="Path 113" d="M1958,1589.537a5.591,5.591,0,0,0,1.986-.355c3.064-1.149,4.762-3.409,6.4-5.6.463-.614.929-1.237,1.433-1.841a4.048,4.048,0,0,1,2.472-1.287,6,6,0,0,0,2.454-1.038,5.217,5.217,0,0,0,1.514-2.453,4.723,4.723,0,0,1,.683-1.386c.789-.921,1.772-.978,3.31-.993a12.148,12.148,0,0,0,2.279-.172,1.032,1.032,0,0,0-.4-2.025,10.374,10.374,0,0,1-1.9.132c-1.6.018-3.416.036-4.858,1.716a6.384,6.384,0,0,0-1.049,2.009,3.519,3.519,0,0,1-.87,1.561,4.2,4.2,0,0,1-1.656.645,6,6,0,0,0-3.565,1.971c-.526.629-1.015,1.279-1.5,1.923-1.533,2.038-2.979,3.964-5.48,4.9-1.528.573-3.146-.067-4.858-.745-1.777-.7-3.615-1.426-5.59-.936a1.032,1.032,0,1,0,.5,2c1.334-.333,2.788.242,4.331.853A12.022,12.022,0,0,0,1958,1589.537Z" transform="translate(-1948.028 -1572.373)" fill="#664238"/>
    </g>
    <g id="Group_119" data-name="Group 119" transform="translate(170.301 335.008)">
      <path id="Path_114" data-name="Path 114" d="M1968.687,1556.567a1.068,1.068,0,0,0,.327-.053,1.034,1.034,0,0,0,.653-1.307c-.085-.251-.177-.512-.273-.778a6.957,6.957,0,0,1-.658-3.478,3.79,3.79,0,0,1,1.529-2.226c1.37-1.175,2.38-2.4.855-5.446a1.032,1.032,0,0,0-1.847.922c.927,1.858.6,2.135-.354,2.956a5.772,5.772,0,0,0-2.2,3.361,8.514,8.514,0,0,0,.733,4.607c.09.252.177.5.257.735A1.034,1.034,0,0,0,1968.687,1556.567Z" transform="translate(-1966.612 -1542.707)" fill="#664238"/>
    </g>
    <g id="Group_120" data-name="Group 120" transform="translate(158.861 354.759)">
      <path id="Path_115" data-name="Path 115" d="M1952.6,1619.506a7.54,7.54,0,0,0,4.457-1.655,7.954,7.954,0,0,1,3.545-1.567c.51-.071,1-.13,1.475-.188a23.778,23.778,0,0,0,4.881-.952c.1-.013.532,0,.824.011a3.36,3.36,0,0,0,2.5-.474,1.277,1.277,0,0,0,.4-.928,1.032,1.032,0,0,0-1.83-.656,9.629,9.629,0,0,1-1-.005,4.647,4.647,0,0,0-1.549.094,21.854,21.854,0,0,1-4.478.86c-.488.059-.988.12-1.511.192a9.92,9.92,0,0,0-4.408,1.9c-1.588,1.062-2.736,1.827-5.544.89a1.033,1.033,0,1,0-.653,1.96A9.151,9.151,0,0,0,1952.6,1619.506Zm16.018-5.756v0Z" transform="translate(-1949 -1612.72)" fill="#664238"/>
    </g>
    <g id="Group_121" data-name="Group 121" transform="translate(139.247 363.812)">
      <path id="Path_116" data-name="Path 116" d="M1977.259,1650.99a1.029,1.029,0,0,0,.46-.109c.686-.343,1.377-.78,2.109-1.244,1.612-1.022,3.279-2.077,4.836-2.077a14.017,14.017,0,0,1,3.934.83,18.155,18.155,0,0,0,4.381.952,7.775,7.775,0,0,0,4.079-1.3,6.8,6.8,0,0,1,2.628-1.036,10.778,10.778,0,0,1,2.427.526c2.627.745,6.59,1.867,7.67-1.366a1.033,1.033,0,1,0-1.96-.654c-.418,1.26-2.58.758-5.147.032a10.206,10.206,0,0,0-3.136-.6,8.392,8.392,0,0,0-3.481,1.288,5.781,5.781,0,0,1-2.976,1.042,16.59,16.59,0,0,1-3.88-.864,15.773,15.773,0,0,0-4.539-.92c-2.155,0-4.167,1.273-5.941,2.4-.687.436-1.335.846-1.926,1.142a1.032,1.032,0,0,0,.462,1.956Z" transform="translate(-1976.225 -1644.81)" fill="#664238"/>
    </g>
    <g id="Group_122" data-name="Group 122" transform="translate(150.409 323.349)">
      <path id="Path_117" data-name="Path 117" d="M2043.879,1516.748a1.019,1.019,0,0,0,.384-.074,1.031,1.031,0,0,0,.575-1.342c-.1-.265-.229-.555-.363-.865-.6-1.4-1.509-3.508-1.018-4.656a1.837,1.837,0,0,1,.562-.526,2.528,2.528,0,0,0,1.284-2.69,13.641,13.641,0,0,0-1.137-2.97c-.261-.551-.515-1.084-.686-1.562a1.032,1.032,0,1,0-1.944.693c.2.555.472,1.136.762,1.749a12.355,12.355,0,0,1,.98,2.494c.04.2.046.23-.49.627a3.38,3.38,0,0,0-1.23,1.373c-.84,1.963.234,4.459,1.019,6.284.125.292.243.566.343.815A1.032,1.032,0,0,0,2043.879,1516.748Z" transform="translate(-2041.253 -1501.377)" fill="#664238"/>
    </g>
    <g id="Group_123" data-name="Group 123" transform="translate(173.673 348.723)">
      <path id="Path_118" data-name="Path 118" d="M1953.436,1599.836a1.034,1.034,0,0,0,.98-.706,7.9,7.9,0,0,1,1.842-2.931,7.325,7.325,0,0,0,2.031-3.639,1.033,1.033,0,0,0-2.025-.406,5.411,5.411,0,0,1-1.558,2.682,9.859,9.859,0,0,0-2.25,3.641,1.034,1.034,0,0,0,.653,1.307A1.066,1.066,0,0,0,1953.436,1599.836Z" transform="translate(-1952.403 -1591.324)" fill="#664238"/>
    </g>
    <g id="Group_124" data-name="Group 124" transform="translate(67.225 280.288)">
      <path id="Path_119" data-name="Path 119" d="M2289.7,1387.5a1.033,1.033,0,0,0,1.033-1.033c0-.458-.005-.9-.012-1.34-.033-2.538-.06-4.542,1.09-6.717a7.2,7.2,0,0,1,2.3-2.278c1.385-1.019,2.957-2.174,3.489-4.571a30.577,30.577,0,0,0,.495-3.966c.212-2.571.432-5.23,1.593-6.907a19.192,19.192,0,0,1,2.513-2.75c2.148-2.072,4.584-4.419,3.792-8.377a1.032,1.032,0,1,0-2.025.406c.57,2.849-1.094,4.453-3.2,6.484a20.694,20.694,0,0,0-2.778,3.061c-1.476,2.132-1.719,5.071-1.953,7.913a28.774,28.774,0,0,1-.453,3.687c-.364,1.641-1.445,2.436-2.7,3.357a9.024,9.024,0,0,0-2.9,2.975c-1.4,2.64-1.365,5.1-1.33,7.709.007.428.012.864.012,1.313A1.033,1.033,0,0,0,2289.7,1387.5Z" transform="translate(-2288.646 -1348.731)" fill="#664238"/>
    </g>
    <g id="Group_125" data-name="Group 125" transform="translate(63.501 277.889)">
      <path id="Path_120" data-name="Path 120" d="M2337.008,1368.962a1.033,1.033,0,0,0,.923-1.493,22.723,22.723,0,0,0-2.227-3.372,13.194,13.194,0,0,1-2.776-5.057,3.558,3.558,0,0,1,.5-2.536,5.352,5.352,0,0,0,.71-3.234,15.361,15.361,0,0,0-2.646-5.965c-.506-.811-.983-1.576-1.348-2.307a3.96,3.96,0,0,1-.129-1.807,7.085,7.085,0,0,0-.094-2.178,1.033,1.033,0,1,0-2,.5,5.569,5.569,0,0,1,.037,1.55,5.489,5.489,0,0,0,.343,2.856c.41.819.934,1.66,1.442,2.475a13.916,13.916,0,0,1,2.35,5.13,3.461,3.461,0,0,1-.519,2.078,5.537,5.537,0,0,0-.666,3.84,14.884,14.884,0,0,0,3.149,5.889,21.112,21.112,0,0,1,2.031,3.057A1.032,1.032,0,0,0,2337.008,1368.962Z" transform="translate(-2327.885 -1340.229)" fill="#664238"/>
    </g>
    <g id="Group_126" data-name="Group 126" transform="translate(42.378 285.081)">
      <path id="Path_121" data-name="Path 121" d="M2369.949,1394.754a1.032,1.032,0,0,0,.249-2.034l-.222-.055c-1.757-.438-1.9-.474-4.762-2.091-2-1.125-2.193-2.964-2.419-5.092-.188-1.771-.4-3.778-1.821-5.339-1.4-1.536-3.349-1.87-5.238-2.194-1.7-.293-3.313-.569-4.352-1.7-.863-.941-.987-2.626-1.108-4.255-.2-2.645-.465-6.268-4.9-6.268a1.033,1.033,0,1,0,0,2.065c2.3,0,2.6,1.194,2.838,4.356.14,1.888.3,4.028,1.646,5.5,1.517,1.655,3.645,2.021,5.524,2.342,1.616.278,3.142.541,4.06,1.55.964,1.061,1.124,2.569,1.295,4.167.25,2.355.534,5.025,3.457,6.674,3,1.7,3.319,1.807,5.277,2.3l.222.055A1.009,1.009,0,0,0,2369.949,1394.754Z" transform="translate(-2344.347 -1365.722)" fill="#664238"/>
    </g>
    <g id="Group_127" data-name="Group 127" transform="translate(31.142 297.666)">
      <path id="Path_122" data-name="Path 122" d="M2372.91,1430.249c1.6,0,3.285-.1,4.779-.187,1.183-.07,2.3-.136,3.112-.136a1.033,1.033,0,1,0,0-2.065c-.874,0-2.019.068-3.233.139-2.76.163-6.2.365-8.216-.111-2.16-.508-4.055-2.825-5.887-5.066a21.06,21.06,0,0,0-4.9-4.851c-1.484-.89-3.648-1.015-5.739-1.135-2-.116-4.267-.246-4.883-1.12a40.736,40.736,0,0,1-1.931-4.246l-.208-.5a1.033,1.033,0,0,0-1.906.8l.207.5a34.885,34.885,0,0,0,2.15,4.642c1.19,1.69,3.745,1.836,6.453,1.992,1.842.106,3.747.215,4.8.844a19.373,19.373,0,0,1,4.367,4.388c2.05,2.508,4.171,5.1,7.012,5.769A18.556,18.556,0,0,0,2372.91,1430.249Z" transform="translate(-2343.814 -1410.336)" fill="#664238"/>
    </g>
    <g id="Group_128" data-name="Group 128" transform="translate(74.138 277.142)">
      <path id="Path_123" data-name="Path 123" d="M2314.172,1350.881a1.033,1.033,0,0,0,.857-1.605c-1.766-2.65-1.41-3.188-1-3.81a3.472,3.472,0,0,0,.534-3.242,7.537,7.537,0,0,0-.889-1.84,3.62,3.62,0,0,1-.718-1.771,1.033,1.033,0,1,0-2.065,0,5.361,5.361,0,0,0,1.018,2.842,5.736,5.736,0,0,1,.668,1.337,1.467,1.467,0,0,1-.27,1.537c-.862,1.3-1.335,2.583,1,6.093A1.031,1.031,0,0,0,2314.172,1350.881Z" transform="translate(-2310.891 -1337.58)" fill="#664238"/>
    </g>
    <g id="Group_129" data-name="Group 129" transform="translate(54.364 280.738)">
      <path id="Path_124" data-name="Path 124" d="M2355.342,1364.031a5.677,5.677,0,0,0,1.8-.305,1.033,1.033,0,1,0-.654-1.96c-2.814.938-4.712-1.627-7.086-5.354a23.629,23.629,0,0,0-2.16-3.05,7.123,7.123,0,0,1-.511-.706c-.663-.983-1.571-2.327-2.948-2.327a1.033,1.033,0,1,0,0,2.065c.3.034.981,1.039,1.237,1.417a9.033,9.033,0,0,0,.694.94,22.148,22.148,0,0,1,1.947,2.772C2349.448,1360.33,2351.807,1364.031,2355.342,1364.031Z" transform="translate(-2342.749 -1350.329)" fill="#664238"/>
    </g>
    <g id="Group_130" data-name="Group 130" transform="translate(51.367 283.884)">
      <path id="Path_125" data-name="Path 125" d="M2391.844,1376.878a1.072,1.072,0,0,0,.327-.052,1.034,1.034,0,0,0,.653-1.307,1.875,1.875,0,0,1,.308-2.037,3.924,3.924,0,0,0,.785-2.857,10.29,10.29,0,0,0-1.588-4.032,7.633,7.633,0,0,1-1.4-4.079,1.032,1.032,0,0,0-2.065,0,9.637,9.637,0,0,0,1.679,5.114,8.525,8.525,0,0,1,1.326,3.254,1.919,1.919,0,0,1-.468,1.475,3.869,3.869,0,0,0-.536,3.815A1.033,1.033,0,0,0,2391.844,1376.878Z" transform="translate(-2388.863 -1361.481)" fill="#664238"/>
    </g>
    <g id="Group_131" data-name="Group 131" transform="translate(36.387 293.022)">
      <path id="Path_126" data-name="Path 126" d="M2393.961,1409.8a4.943,4.943,0,0,0,4.187-1.889,1.033,1.033,0,0,0-1.719-1.146c-.78,1.171-3.287,1.244-4.591.442a4.123,4.123,0,0,1-1.413-2.237,5.549,5.549,0,0,0-2.745-3.517,7,7,0,0,0-2.9-.508,3.62,3.62,0,0,1-2.552-.683,4.463,4.463,0,0,1-1.024-1.982,5.371,5.371,0,0,0-1.56-2.693,3.734,3.734,0,0,0-2.316-.7c-.753-.035-1.03-.071-1.354-.558a1.032,1.032,0,1,0-1.718,1.146,3.329,3.329,0,0,0,2.977,1.475,1.878,1.878,0,0,1,1.143.265,3.865,3.865,0,0,1,.871,1.725,6.116,6.116,0,0,0,1.637,2.888,5.483,5.483,0,0,0,3.851,1.179,5.155,5.155,0,0,1,2.086.324c.878.4,1.208,1.163,1.671,2.377a5.876,5.876,0,0,0,2.261,3.256A6.241,6.241,0,0,0,2393.961,1409.8Z" transform="translate(-2374.087 -1393.874)" fill="#664238"/>
    </g>
    <g id="Group_132" data-name="Group 132" transform="translate(26.499 310.699)">
      <path id="Path_127" data-name="Path 127" d="M2423.711,1462.678a3.117,3.117,0,0,0,.545-.049,5.7,5.7,0,0,0,3.1-1.969,4.338,4.338,0,0,1,3.456-1.761,1.033,1.033,0,1,0,0-2.065,6.3,6.3,0,0,0-4.937,2.386,3.852,3.852,0,0,1-1.99,1.377c-.732.141-1.757-.663-2.74-1.435a8.8,8.8,0,0,0-2.783-1.689,9.716,9.716,0,0,0-4.87.132c-1.9.4-3.268.684-4.721-.768a1.032,1.032,0,1,0-1.46,1.46c2.241,2.243,4.559,1.757,6.605,1.328a7.876,7.876,0,0,1,3.879-.167,7.536,7.536,0,0,1,2.075,1.328C2421.009,1461.68,2422.28,1462.678,2423.711,1462.678Z" transform="translate(-2407.009 -1456.535)" fill="#664238"/>
    </g>
    <g id="Group_133" data-name="Group 133" transform="translate(27.847 303.208)">
      <path id="Path_128" data-name="Path 128" d="M2462.776,1434.482a3.862,3.862,0,0,0,.832-.093c1.174-.262,2.355-1.054,3.947-2.647a1.032,1.032,0,0,0-1.46-1.46,6.977,6.977,0,0,1-2.936,2.091c-.5.114-1.213.092-2.345-1.041a1.032,1.032,0,0,0-1.46,1.46A4.875,4.875,0,0,0,2462.776,1434.482Z" transform="translate(-2459.052 -1429.979)" fill="#664238"/>
    </g>
    <g id="Group_134" data-name="Group 134" transform="translate(607.034 250.824)">
      <path id="Path_129" data-name="Path 129" d="M356.924,1292.694a1.033,1.033,0,0,0,1.032-1.033c0-.4-.047-1.016-.106-1.76-.169-2.142-.484-6.128.476-7.407a9.585,9.585,0,0,1,2.632-2.193,9.019,9.019,0,0,0,3.818-3.908,16.674,16.674,0,0,0,1-6.878c.008-2.389.017-4.645,1.109-6.557,1.236-2.163,3.1-3.356,5.08-4.618,2.1-1.34,4.265-2.725,5.718-5.321,1.2-2.147.955-4.946.755-7.2l-.051-.592a1.033,1.033,0,0,0-2.058.172l.052.6c.183,2.069.391,4.415-.5,6.005-1.2,2.143-3.06,3.332-5.029,4.589-2.1,1.342-4.273,2.729-5.761,5.335-1.363,2.385-1.373,5.023-1.381,7.574a14.891,14.891,0,0,1-.825,6.046,7.046,7.046,0,0,1-3.054,3.014,11.328,11.328,0,0,0-3.161,2.686c-1.318,1.757-1.158,5.314-.882,8.809.053.675.1,1.236.1,1.6A1.033,1.033,0,0,0,356.924,1292.694Z" transform="translate(-355.602 -1244.286)" fill="#664238"/>
    </g>
    <g id="Group_135" data-name="Group 135" transform="translate(586.044 251.111)">
      <path id="Path_130" data-name="Path 130" d="M452.218,1283.639a1.032,1.032,0,0,0,.249-2.034c-3.447-.862-8.174-7.2-8.43-11.3-.042-.663-.029-1.43-.018-2.241.033-2.321.07-4.952-.974-6.831-1.35-2.429-3.576-3.673-5.54-4.77-2.357-1.316-4.391-2.452-5-5.308a9.348,9.348,0,0,1,.028-2.846,18.875,18.875,0,0,0,.138-1.975,1.032,1.032,0,1,0-2.065,0,17.121,17.121,0,0,1-.127,1.759,11.008,11.008,0,0,0,.006,3.5c.808,3.77,3.574,5.314,6.016,6.678,1.891,1.057,3.677,2.055,4.741,3.97.777,1.4.744,3.736.715,5.8-.012.869-.023,1.69.022,2.4.284,4.535,5.371,12.015,9.991,13.17A1.014,1.014,0,0,0,452.218,1283.639Z" transform="translate(-430.337 -1245.305)" fill="#664238"/>
    </g>
    <g id="Group_136" data-name="Group 136" transform="translate(599.264 249.385)">
      <path id="Path_131" data-name="Path 131" d="M412.312,1270.9a1.029,1.029,0,0,0,.73-.3,9.616,9.616,0,0,1,2.591-1.643,10.06,10.06,0,0,0,3.517-2.455c1.668-2,1.423-4.415,1.208-6.545a10.621,10.621,0,0,1,.008-3.509,19.152,19.152,0,0,1,2.973-5.909c1.968-2.977,4-6.055,2.475-10.644a1.033,1.033,0,1,0-1.959.654c1.211,3.635-.311,5.937-2.238,8.85a21.08,21.08,0,0,0-3.253,6.549,12.277,12.277,0,0,0-.06,4.218c.2,1.974.372,3.68-.739,5.013a8.354,8.354,0,0,1-2.851,1.929,11.281,11.281,0,0,0-3.13,2.031,1.033,1.033,0,0,0,.73,1.763Z" transform="translate(-411.28 -1239.188)" fill="#664238"/>
    </g>
    <g id="Group_137" data-name="Group 137" transform="translate(597.968 245.496)">
      <path id="Path_132" data-name="Path 132" d="M441.392,1247.619a1.033,1.033,0,0,0,.923-1.494,11.007,11.007,0,0,0-2.145-2.755,9.067,9.067,0,0,1-1.874-2.407,3.516,3.516,0,0,1-.116-2.644,6.858,6.858,0,0,0,.2-2.682,4.847,4.847,0,0,0-2.425-3.61,3.124,3.124,0,0,1-1.25-1.261,8.213,8.213,0,0,1-.494-2.493,14.434,14.434,0,0,0-.312-2.088,1.032,1.032,0,1,0-2,.5,12.632,12.632,0,0,1,.26,1.791,9.871,9.871,0,0,0,.663,3.128,5.039,5.039,0,0,0,1.957,2.118,2.875,2.875,0,0,1,1.563,2.221,4.955,4.955,0,0,1-.175,1.922,5.48,5.48,0,0,0,.262,3.977,10.812,10.812,0,0,0,2.263,2.969,9.242,9.242,0,0,1,1.777,2.236A1.034,1.034,0,0,0,441.392,1247.619Z" transform="translate(-431.867 -1225.402)" fill="#664238"/>
    </g>
    <g id="Group_138" data-name="Group 138" transform="translate(571.918 267.231)">
      <path id="Path_133" data-name="Path 133" d="M464.781,1331.427h.153c4.481-.089,4.979-.122,5.191-.137.116-.008.119-.008.914-.007l.063-1.032-.063-1.033h-.01c-.914,0-.915,0-1.048.011-.163.012-.658.046-5.087.133-2.739.111-3.584-1.927-4.77-5.165a13.514,13.514,0,0,0-2.684-5.039c-1.878-1.878-4.394-2.644-6.828-3.384a19.949,19.949,0,0,1-4.589-1.8c-1.176-.718-1.557-2.1-2-3.695a10.533,10.533,0,0,0-1.449-3.519,8.078,8.078,0,0,0-2.914-2.23,6.518,6.518,0,0,1-2.274-1.664,1.033,1.033,0,0,0-1.653,1.24,8.328,8.328,0,0,0,2.951,2.245,6.3,6.3,0,0,1,2.225,1.631,8.93,8.93,0,0,1,1.123,2.847c.488,1.764,1.041,3.763,2.914,4.907a21.645,21.645,0,0,0,5.065,2.017c2.291.7,4.456,1.357,5.968,2.869a11.908,11.908,0,0,1,2.2,4.29C459.3,1327.964,460.573,1331.427,464.781,1331.427Zm6.321-1.178v0Z" transform="translate(-435.528 -1302.447)" fill="#664238"/>
    </g>
    <g id="Group_139" data-name="Group 139" transform="translate(615.383 261.042)">
      <path id="Path_134" data-name="Path 134" d="M295.664,1297.687a1.032,1.032,0,0,0,.461-.109c1.23-.616,3.019-.505,4.914-.393,2.37.144,4.821.29,6.711-.968a14.715,14.715,0,0,0,3.586-3.966c1.174-1.662,2.283-3.232,3.846-3.847a14.737,14.737,0,0,1,3.268-.626c3.391-.419,8.036-.992,8.036-6.236a1.032,1.032,0,1,0-2.065,0c0,3.188-2.352,3.708-6.224,4.185a16.078,16.078,0,0,0-3.771.754c-2.138.84-3.48,2.741-4.777,4.579a13.045,13.045,0,0,1-3.045,3.438c-1.311.875-3.316.754-5.441.625-2.082-.129-4.234-.257-5.962.606a1.033,1.033,0,0,0,.462,1.956Z" transform="translate(-294.631 -1280.51)" fill="#664238"/>
    </g>
    <g id="Group_140" data-name="Group 140" transform="translate(608.043 283.886)">
      <path id="Path_135" data-name="Path 135" d="M298.7,1372.736a4.9,4.9,0,0,0,1.712-.285,33.21,33.21,0,0,0,6.181-3.423c2.489-1.611,5.062-3.276,7.469-3.728.593-.116,1.043.163,1.78.657a4,4,0,0,0,3.125.923,11.793,11.793,0,0,0,4.463-2.06c1.73-1.153,2.776-1.847,5.234-.62a1.033,1.033,0,0,0,.924-1.847c-3.532-1.768-5.45-.487-7.3.75a9.949,9.949,0,0,1-3.723,1.752c-.484.1-.89-.157-1.568-.613a4.265,4.265,0,0,0-3.312-.973c-2.808.527-5.555,2.306-8.211,4.025a31.261,31.261,0,0,1-5.773,3.217c-.988.367-2.319.034-3.729-.317a10.112,10.112,0,0,0-5.74-.269,1.033,1.033,0,0,0,.653,1.96c1.421-.476,3.032-.074,4.589.313A13.725,13.725,0,0,0,298.7,1372.736Z" transform="translate(-289.528 -1361.486)" fill="#664238"/>
    </g>
    <g id="Group_141" data-name="Group 141" transform="translate(630.207 271.982)">
      <path id="Path_136" data-name="Path 136" d="M294.641,1335.459a1.033,1.033,0,0,0,1.032-1.033v-.138a20.042,20.042,0,0,1,.253-4.06c.174-.657,1.431-.9,2.647-1.124a5.8,5.8,0,0,0,3.311-1.327,6.57,6.57,0,0,0,1.184-2.314c.308-.874.573-1.628,1.133-1.933a5.039,5.039,0,0,1,2.051-.312c1.606-.05,3.805-.117,4.623-2.569a1.032,1.032,0,1,0-1.959-.653c-.331.992-1.011,1.1-2.727,1.159a6.481,6.481,0,0,0-2.977.563,4.972,4.972,0,0,0-2.092,3.059,5.084,5.084,0,0,1-.771,1.619,5.215,5.215,0,0,1-2.16.68c-1.672.315-3.752.707-4.261,2.624a20.642,20.642,0,0,0-.322,4.589v.138A1.033,1.033,0,0,0,294.641,1335.459Z" transform="translate(-293.608 -1319.291)" fill="#664238"/>
    </g>
    <g id="Group_142" data-name="Group 142" transform="translate(632.462 254.998)">
      <path id="Path_137" data-name="Path 137" d="M324.934,1273.957a1.033,1.033,0,0,0,1.033-1.032c0-.579-.049-1.16-.1-1.741a11.576,11.576,0,0,1-.052-2.311.879.879,0,0,1,.1-.384,3.581,3.581,0,0,1,.522-.029,2.366,2.366,0,0,0,2.271-1.067,68.13,68.13,0,0,0,1.575-7.276,1.032,1.032,0,0,0-2.065,0c-.051.417-1.041,5.295-1.319,6.248a3.184,3.184,0,0,1-.5.031,2.328,2.328,0,0,0-2.64,2.236,13.289,13.289,0,0,0,.045,2.732c.046.52.092,1.042.092,1.562A1.033,1.033,0,0,0,324.934,1273.957Z" transform="translate(-323.71 -1259.083)" fill="#664238"/>
    </g>
    <g id="Group_143" data-name="Group 143" transform="translate(616.124 249.384)">
      <path id="Path_138" data-name="Path 138" d="M388.309,1259.1a1.033,1.033,0,0,0,1.033-1.032,16.212,16.212,0,0,0-.218-2.338,7.223,7.223,0,0,1,.021-3.38c.089-.268.3-.409.8-.69a3,3,0,0,0,1.834-2.412,67.828,67.828,0,0,0,.163-6.982c-.007-.706-.014-1.393-.014-2.045a1.032,1.032,0,0,0-2.065,0c0,.659.007,1.354.014,2.067a65.594,65.594,0,0,1-.153,6.754c-.037.362-.172.471-.789.816a3.289,3.289,0,0,0-1.754,1.838,9.013,9.013,0,0,0-.106,4.328,14.534,14.534,0,0,1,.2,2.044A1.033,1.033,0,0,0,388.309,1259.1Z" transform="translate(-386.866 -1239.185)" fill="#664238"/>
    </g>
    <g id="Group_144" data-name="Group 144" transform="translate(577.387 259.748)">
      <path id="Path_139" data-name="Path 139" d="M485.383,1292.233a1.166,1.166,0,0,0,1.236-1.033.976.976,0,0,0-.964-1.032h-.137a26.614,26.614,0,0,1-6.418-.554c-1.227-.254-2.04-2.335-2.827-4.348-.732-1.872-1.488-3.807-2.8-4.815a2.794,2.794,0,0,0-1.853-.444,1.909,1.909,0,0,1-.693-.055,15.427,15.427,0,0,1-2.5-2.064,23.815,23.815,0,0,0-2.014-1.763,1.033,1.033,0,0,0-1.238,1.654,21.819,21.819,0,0,1,1.835,1.611,17.16,17.16,0,0,0,2.858,2.332,3.2,3.2,0,0,0,1.791.35,2.4,2.4,0,0,1,.578.028c.834.644,1.484,2.308,2.113,3.916.987,2.525,2.007,5.136,4.331,5.619A28.39,28.39,0,0,0,485.383,1292.233Z" transform="translate(-464.761 -1275.922)" fill="#664238"/>
    </g>
    <g id="Group_145" data-name="Group 145" transform="translate(576.81 284.604)">
      <path id="Path_140" data-name="Path 140" d="M487.458,1372.961a2.438,2.438,0,0,0,.685-.1,12.933,12.933,0,0,0,2.856-1.39,7.481,7.481,0,0,1,3.049-1.305,1.033,1.033,0,0,0,0-2.065,8.671,8.671,0,0,0-4.1,1.591,11.687,11.687,0,0,1-2.376,1.186c-.537.152-1.64-.832-2.367-1.483a11.155,11.155,0,0,0-1.406-1.136,2.6,2.6,0,0,0-2.489-.034c-.065.027-.149.06-.22.086a27.469,27.469,0,0,1-3.365-3.6,1,1,0,0,0-1.291-.617,1.064,1.064,0,0,0-.639,1.342c.316.948,3.594,4.239,4.291,4.705a2.031,2.031,0,0,0,1.994,0c.441-.176.534-.189.624-.13a9.831,9.831,0,0,1,1.123.922C484.855,1371.852,486.093,1372.961,487.458,1372.961Z" transform="translate(-475.744 -1364.034)" fill="#664238"/>
    </g>
    <g id="Group_146" data-name="Group 146" transform="translate(580.986 267.806)">
      <path id="Path_141" data-name="Path 141" d="M517.258,1316.052a1.033,1.033,0,0,0,1.033-1.033,3.138,3.138,0,0,1,.667-1.534,6.168,6.168,0,0,0,.885-1.815c.461-1.842-.46-4.243-1.133-6l-.2-.518a1.033,1.033,0,0,0-1.933.726l.2.531c.542,1.413,1.361,3.547,1.058,4.756a4.525,4.525,0,0,1-.622,1.2,4.815,4.815,0,0,0-.992,2.646A1.033,1.033,0,0,0,517.258,1316.052Z" transform="translate(-516.225 -1304.488)" fill="#664238"/>
    </g>
    <g id="Group_147" data-name="Group 147" transform="translate(643.412 278.779)">
      <path id="Path_142" data-name="Path 142" d="M273.851,1349.949a1.033,1.033,0,0,0,.461-.109,8.261,8.261,0,0,0,2.728-2.514c1.244-1.577,1.931-2.444,4.341-1.48a1.033,1.033,0,0,0,.768-1.917c-3.846-1.538-5.445.491-6.73,2.119a6.5,6.5,0,0,1-2.031,1.945,1.033,1.033,0,0,0,.463,1.956Z" transform="translate(-272.818 -1343.382)" fill="#664238"/>
    </g>
    <g id="Group_148" data-name="Group 148" transform="translate(635.772 288.341)">
      <path id="Path_143" data-name="Path 143" d="M315.042,1382.657a3.111,3.111,0,0,0,2.23-1.026,1.033,1.033,0,0,0-1.461-1.46c-.476.477-.772.43-.87.413-.662-.107-1.592-1.18-2.369-2.733a1.032,1.032,0,1,0-1.847.922c.8,1.6,2.122,3.564,3.885,3.849A2.7,2.7,0,0,0,315.042,1382.657Z" transform="translate(-310.615 -1377.28)" fill="#664238"/>
    </g>
    <g id="Group_149" data-name="Group 149" transform="translate(621.761 276.201)">
      <path id="Path_144" data-name="Path 144" d="M374.629,1338.469a1.033,1.033,0,0,0,.8-1.687c-.519-.633-.8-.947-.972-1.137a1.668,1.668,0,0,1-.348-.547l-.139-.281a1.033,1.033,0,1,0-1.847.925l.137.273a3.257,3.257,0,0,0,.661,1.01c.161.18.425.472.911,1.068A1.031,1.031,0,0,0,374.629,1338.469Z" transform="translate(-372.012 -1334.246)" fill="#664238"/>
    </g>
    <g id="Group_150" data-name="Group 150" transform="translate(563.416 209.486)">
      <path id="Path_145" data-name="Path 145" d="M251.856,1126.38a1.031,1.031,0,0,0,.924-.571c2.835-5.668,9.141-6.29,15.241-6.889a41.007,41.007,0,0,0,8.053-1.315c4.311-1.347,7.553-4.47,10.689-7.49,3.26-3.14,6.338-6.1,10.538-7.3,4.663-1.328,8.759-.183,13.094,1.033,3.246.91,6.6,1.845,10.206,1.663a18.165,18.165,0,0,0,6.86-2.037,17.24,17.24,0,0,1,5.344-1.764,24.893,24.893,0,0,1,4.528.013c3.049.2,5.924.391,9.26-2.111a1.032,1.032,0,1,0-1.24-1.651c-2.725,2.042-5,1.893-7.883,1.7a26.575,26.575,0,0,0-4.893,0,19.08,19.08,0,0,0-5.974,1.937,16.272,16.272,0,0,1-6.111,1.853c-3.264.169-6.312-.683-9.539-1.589-4.422-1.241-8.994-2.526-14.219-1.028-4.7,1.34-8.106,4.625-11.4,7.8-3.1,2.986-6.028,5.805-9.872,7.007a39.544,39.544,0,0,1-7.639,1.23c-6.347.625-13.541,1.332-16.885,8.021a1.032,1.032,0,0,0,.923,1.495Z" transform="translate(-250.823 -1097.75)" fill="#664238"/>
    </g>
    <g id="Group_151" data-name="Group 151" transform="translate(578.216 168.879)">
      <path id="Path_146" data-name="Path 146" d="M311.048,1014.694a1.029,1.029,0,0,0,.73-.3c3.041-3.041,4.441-7.2,5.795-11.219a48.169,48.169,0,0,1,2.369-6.128c2.3-4.6,6.975-7.393,11.927-10.355,3.7-2.213,7.526-4.5,10.312-7.635a32.748,32.748,0,0,0,3.761-5.752c1.562-2.792,3.178-5.678,5.555-7.376,2.015-1.441,5.137-1.664,7.891-1.86.925-.066,1.819-.13,2.642-.233,5.028-.629,7.841-3.564,10.819-6.672.5-.526,1.016-1.06,1.548-1.592a1.032,1.032,0,1,0-1.46-1.46c-.542.542-1.064,1.087-1.578,1.623-2.835,2.959-5.284,5.515-9.585,6.053-.789.1-1.646.159-2.534.223-3.026.216-6.455.461-8.944,2.239-2.754,1.966-4.484,5.058-6.157,8.048a30.757,30.757,0,0,1-3.5,5.389c-2.575,2.9-6.263,5.1-9.829,7.234-4.988,2.983-10.145,6.067-12.714,11.2a50.3,50.3,0,0,0-2.479,6.391c-1.278,3.8-2.6,7.72-5.3,10.418a1.033,1.033,0,0,0,.73,1.763Z" transform="translate(-310.015 -953.806)" fill="#664238"/>
    </g>
    <g id="Group_152" data-name="Group 152" transform="translate(216.351 84.59)">
      <path id="Path_147" data-name="Path 147" d="M1713.538,678.044a2.172,2.172,0,0,0,1.95-.837c.755-1.043-.2-1.987-.613-2.391a2.861,2.861,0,0,1-.523-.608,1.982,1.982,0,0,1,.094-1.225,9.243,9.243,0,0,1,2.712-3.241c.618-.53,1.425-1.236,2.314-2.016,1.671-1.464,3.564-3.123,5.118-4.408,2.15-1.78,3.907-5.581,3.357-7.263a1.433,1.433,0,0,0-1.3-1.038c-.876-.054-1.328.731-1.691,1.426a9.011,9.011,0,0,1-3.331,3.762,30.535,30.535,0,0,1-3,1.714,15.992,15.992,0,0,0-4.756,3.439,17.481,17.481,0,0,0-2.151,2.7c-.883,1.291-1.429,2.034-2.373,2.3a2.894,2.894,0,0,1-2.036-.587,18,18,0,0,1-2.556-2.086,15.45,15.45,0,0,0-1.624-1.381,14.8,14.8,0,0,0-3.317-1.553,11.421,11.421,0,0,1-2.48-1.129c-.652-.458-1.6-1.27-2.435-1.985-2.058-1.76-2.678-2.291-3.455-1.509a1.356,1.356,0,0,0-.335.9c.051,1.145,2.041,3.4,3.4,4.527l.652.543a26.8,26.8,0,0,0,4.962,3.5,23.467,23.467,0,0,1,4.037,3.438l.534.537a33.489,33.489,0,0,0,2.553,2.4,8.081,8.081,0,0,0,5.227,2.037c.218,0,.417.008.6.014C1713.224,678.039,1713.38,678.044,1713.538,678.044Zm.276-2.045.838.6-.839-.6Zm0,0h0ZM1724,661a6.106,6.106,0,0,1-.731.725c-1.574,1.3-3.481,2.973-5.161,4.445-.883.774-1.683,1.475-2.3,2-1.089.934-2.975,2.731-3.364,4.279a3.739,3.739,0,0,0,.031,2.628,3.416,3.416,0,0,0,.63.886c-.2-.007-.409-.014-.64-.014a6.135,6.135,0,0,1-3.919-1.57,31.842,31.842,0,0,1-2.393-2.258l-.541-.544a23.7,23.7,0,0,0-4.5-3.783c-.615-.343-1.125-.645-1.577-.936a11.345,11.345,0,0,1,2.42,1.154,14.92,14.92,0,0,1,1.389,1.194,19.491,19.491,0,0,0,2.872,2.326,4.682,4.682,0,0,0,3.688.816c1.706-.488,2.583-1.768,3.51-3.123a15.527,15.527,0,0,1,1.9-2.4,14.118,14.118,0,0,1,4.246-3.068,32.113,32.113,0,0,0,3.179-1.82A12.253,12.253,0,0,0,1724,661Z" transform="translate(-1691.108 -655.016)" fill="#664238"/>
    </g>
    <g id="Group_153" data-name="Group 153" transform="translate(257.988 115.845)">
      <path id="Path_148" data-name="Path 148" d="M1598.062,781.119a4.586,4.586,0,0,0,2.222-.453,1.18,1.18,0,0,0,.472-1.506c-.046-.1-.118-.239-.2-.4a8.891,8.891,0,0,1-.44-.921,21.118,21.118,0,0,1,2.487-1.9c.619-.434,1.283-.9,1.944-1.391,2.744-2.038,3.965-5.777,3.6-7.456a1.494,1.494,0,0,0-1.135-1.252c-1-.212-1.264.813-1.353,1.15-.222.852-.743,2.845-2.222,3.776a10.407,10.407,0,0,1-1.816.947,8.838,8.838,0,0,0-2.77,1.781,10.209,10.209,0,0,0-.862.876c-.4.44-1.143,1.258-1.5,1.281a4.123,4.123,0,0,1-2.166-.711,8.277,8.277,0,0,0-2.239-.911,13.672,13.672,0,0,0-2.873-.2,8.276,8.276,0,0,1-2.343-.2,9.116,9.116,0,0,1-2.619-1.818c-.679-.616-1.259-.673-1.726-.177a1.381,1.381,0,0,0-.3,1.291c.281,1.25,2.237,3.435,4.121,4.2a15.129,15.129,0,0,0,3.4.97,14.547,14.547,0,0,1,1.759.405,17.7,17.7,0,0,1,3.584,1.667A4.118,4.118,0,0,0,1598.062,781.119Zm1.758-1.524h0Zm-1.437-.552a3.584,3.584,0,0,1-1.772-.26c-.735-.85-3.988-2.094-4.505-2.253a16.452,16.452,0,0,0-1.991-.463c-.293-.054-.579-.106-.885-.175a11.924,11.924,0,0,1,2.436.16,6.468,6.468,0,0,1,1.683.711,5.971,5.971,0,0,0,3.268.949,2.894,2.894,0,0,0,1.537-.633,1.493,1.493,0,0,0-.143.55A3.015,3.015,0,0,0,1598.383,779.043Zm3.775-5.315q-.379.268-.742.522c-.573.4-1.067.752-1.487,1.064.089-.092.173-.174.256-.243A7.36,7.36,0,0,1,1602.158,773.727Z" transform="translate(-1582.176 -765.812)" fill="#664238"/>
    </g>
    <g id="Group_154" data-name="Group 154" transform="translate(276.094 303.907)">
      <path id="Path_149" data-name="Path 149" d="M1364.894,1435.653c5.47,0,12.044-.391,17.384-.709,2.607-.156,4.883-.29,6.525-.348,5.674-.2,13.565.047,21.918.311,5.311.167,10.8.339,15.881.4h.012a1.033,1.033,0,0,0,.012-2.065c-5.059-.058-10.539-.231-15.839-.4-8.391-.263-16.315-.509-22.057-.31-1.655.059-3.949.2-6.574.352-8.447.5-20.015,1.189-25.046.215a1.033,1.033,0,1,0-.393,2.028A47.261,47.261,0,0,0,1364.894,1435.653Z" transform="translate(-1355.88 -1432.458)" fill="#664238"/>
    </g>
    <g id="Group_155" data-name="Group 155" transform="translate(20.5 338.858)">
      <path id="Path_150" data-name="Path 150" d="M2392.933,1562.286c1.885,0,3.76-.153,5.594-.3,3.5-.286,6.813-.558,10.1.151a1.033,1.033,0,1,0,.435-2.019,36.349,36.349,0,0,0-10.71-.19,46.513,46.513,0,0,1-7.724.2,8.612,8.612,0,0,1-3.857-1.632,10.643,10.643,0,0,0-3.689-1.7,44.506,44.506,0,0,0-10.263-.288c-1.279.06-2.537.12-3.744.136a1.033,1.033,0,0,0,.013,2.065h.013c1.23-.016,2.513-.076,3.816-.139a43.265,43.265,0,0,1,9.778.253,9.011,9.011,0,0,1,2.975,1.421,10.5,10.5,0,0,0,4.778,1.943C2391.279,1562.257,2392.107,1562.286,2392.933,1562.286Z" transform="translate(-2368.061 -1556.352)" fill="#664238"/>
    </g>
    <g id="Group_156" data-name="Group 156" transform="translate(536.438 329.493)">
      <path id="Path_151" data-name="Path 151" d="M462.318,1532.076a15.769,15.769,0,0,0,3.929-.447c2.156-.554,2.662-1.313,3.19-2.408a5.123,5.123,0,0,1,.986-1.487c1.621-1.71,6.691-1.864,9.127-1.936.359-.012.679-.021.947-.034.824-.038,1.84-.1,2.973-.182,4.671-.312,13.369-.894,15.39.725a1.032,1.032,0,1,0,1.292-1.61c-2.445-1.96-9.351-1.677-16.82-1.174-1.116.074-2.117.141-2.929.179-.26.012-.568.02-.916.031-4.043.122-8.527.431-10.564,2.581a7.163,7.163,0,0,0-1.348,2.01c-.332.69-.457.948-1.843,1.3-2.655.684-5.744.308-8.732-.054a47.269,47.269,0,0,0-4.945-.428c-4.236-.055-8.527.051-12.677.153-3.681.091-7.491.181-11.23.165h-.005a1.032,1.032,0,0,0-.005,2.065c3.771.016,7.595-.075,11.291-.165,4.131-.1,8.4-.211,12.6-.153a44.658,44.658,0,0,1,4.724.413A46.785,46.785,0,0,0,462.318,1532.076Z" transform="translate(-427.109 -1523.156)" fill="#664238"/>
    </g>
    <g id="Group_157" data-name="Group 157" transform="translate(65.529 168.787)">
      <path id="Path_152" data-name="Path 152" d="M1484.165,1116.931a1.034,1.034,0,0,0,.963-.659c.866-2.226,1.771-4.707,2.743-7.373,3.078-8.432,6.906-18.927,12.343-29.026,2.406-4.469,6.1-11.034,10.969-19.512,2.517-4.377,4.961-8.589,6.948-12,2.739-4.7,4.611-7.881,4.613-7.881a1.033,1.033,0,0,0,.082-.871c-.069-.2-1.683-5.274,4.843-11.8,2.043-2.042,4.379-4.449,6.956-7.1,11.253-11.6,26.663-27.476,42.623-38.8,13.586-9.644,25.075-16.3,37.253-21.6,16.358-7.113,44.751-4.714,60.218-2.651,21.25,2.832,33.238,11.278,49.83,22.966l3.391,2.385a1.033,1.033,0,0,0,1.186-1.691l-3.387-2.382c-16.2-11.412-28.994-20.426-50.748-23.326-15.681-2.09-44.5-4.507-61.313,2.8-12.315,5.354-23.919,12.08-37.627,21.809-16.113,11.438-31.6,27.4-42.908,39.05-2.569,2.647-4.9,5.046-6.935,7.082-6.388,6.385-5.831,11.813-5.464,13.453-.57.969-2.207,3.758-4.4,7.517-1.987,3.416-4.434,7.631-6.954,12.011-4.882,8.5-8.581,15.076-11,19.563-5.508,10.23-9.365,20.8-12.465,29.3-.967,2.651-1.866,5.117-2.728,7.332a1.033,1.033,0,0,0,.589,1.337A1.045,1.045,0,0,0,1484.165,1116.931Z" transform="translate(-1483.132 -953.48)" fill="#664238"/>
    </g>
    <g id="Group_158" data-name="Group 158" transform="translate(65.009 334.956)">
      <path id="Path_153" data-name="Path 153" d="M1445.211,1548.821c8.6,0,17.146-.352,25.936-1.05,12.065-.957,25.26-1.308,38.023-1.647,10.788-.287,21.942-.585,32.234-1.248,10.887-.7,19.887,0,29.417.748,6.73.527,13.688,1.07,21.532,1.11,8.135.043,15.651-.285,22.942-.6,6.5-.282,13.221-.576,20.389-.61a1.033,1.033,0,0,0-.005-2.065h-.005c-7.207.035-13.948.328-20.468.612-7.268.316-14.78.649-22.841.6-7.77-.039-14.69-.581-21.382-1.1-9.6-.751-18.678-1.459-29.711-.749-10.254.66-21.389.956-32.157,1.242-12.788.34-26.012.693-38.133,1.652a331.261,331.261,0,0,1-68.759-1.726c-5.659-.691-11.047-.116-16.258.437-3.354.355-6.823.723-10.391.768-1.438.018-3.033.1-4.693.177-5.85.285-13.131.644-16.119-1.844a1.033,1.033,0,1,0-1.323,1.586c3.6,3,11.008,2.64,17.542,2.321,1.634-.079,3.2-.157,4.62-.175,3.663-.046,7.18-.418,10.582-.78,5.335-.564,10.374-1.1,15.791-.441A353.838,353.838,0,0,0,1445.211,1548.821Z" transform="translate(-1353.068 -1542.523)" fill="#664238"/>
    </g>
    <g id="Group_159" data-name="Group 159" transform="translate(100.8 234.454)">
      <path id="Path_154" data-name="Path 154" d="M1383.418,1209.684a.98.98,0,0,0,.165-.013,1.032,1.032,0,0,0,.855-1.183c-.409-2.538-.121-4.417.881-5.741,1.927-2.549,6.413-3.073,11.608-3.68,5.4-.63,11.518-1.346,16.172-4.67,3.873-2.767,10.891-3.843,17.677-4.882,1.733-.266,3.461-.531,5.136-.821,2.991-.522,7.185-.385,11.624-.238,3.859.126,7.848.258,11.7.007,3.821-.25,8.344.39,13.583,1.129a161.6,161.6,0,0,0,22.09,1.957,129.306,129.306,0,0,0,15.84-1.18c7.2-.833,14.656-1.7,22.939-1.179,15.257.941,27.175,1.542,39.431,1.633,2.513,0,5.738-.277,9.14-.592,6.773-.624,14.449-1.332,19.228.182s10.718,4.763,18.734,10.236a1.032,1.032,0,0,0,1.164-1.7c-8.186-5.591-14.312-8.927-19.274-10.5-5.176-1.641-13.075-.911-20.043-.269-3.346.309-6.51.573-8.932.582-12.21-.09-24.1-.691-39.321-1.631-8.459-.519-16.007.347-23.3,1.19a128.3,128.3,0,0,1-15.585,1.167,157.675,157.675,0,0,1-21.822-1.937c-5.35-.754-9.973-1.413-14.005-1.144-3.745.243-7.683.114-11.494-.011-4.546-.151-8.842-.289-12.046.266-1.662.289-3.375.553-5.093.816-7.026,1.076-14.29,2.19-18.564,5.242-4.223,3.016-10.062,3.7-15.212,4.3-5.43.635-10.558,1.234-13.016,4.487-1.361,1.8-1.776,4.191-1.272,7.314A1.032,1.032,0,0,0,1383.418,1209.684Z" transform="translate(-1382.194 -1186.258)" fill="#664238"/>
    </g>
    <g id="Group_160" data-name="Group 160" transform="translate(42.136 245.878)">
      <path id="Path_155" data-name="Path 155" d="M2193.132,1325.244a1.033,1.033,0,0,0,.9-.52c.207-.362,21.02-36.634,45.13-68.439,12.391-16.347,22.406-27.7,22.506-27.812a1.032,1.032,0,1,0-1.546-1.369c-.1.114-10.164,11.521-22.606,27.933-24.193,31.914-45.069,68.3-45.278,68.662a1.032,1.032,0,0,0,.9,1.544Z" transform="translate(-2192.101 -1226.756)" fill="#664238"/>
    </g>
    <g id="Group_161" data-name="Group 161" transform="translate(188.355 236.205)">
      <path id="Path_156" data-name="Path 156" d="M1605.411,1270.671c2.751,0,5.466-.086,8.1-.217,17.125-.843,30.016-2.592,39.958-17.506,7.354-11.033,5.756-38.646,4.987-51.917l-.067-1.182a1.033,1.033,0,1,0-2.062.118l.068,1.183c.7,12.027,2.327,40.195-4.643,50.652-8.67,13-18.836,15.629-38.343,16.589-17.335.85-38.455-.186-47.871-15.953-10.289-17.23-7.872-41.441-4.032-58.716a1.033,1.033,0,0,0-2.017-.449c-3.921,17.642-6.362,42.411,4.277,60.224C1572.275,1267.755,1589.43,1270.671,1605.411,1270.671Z" transform="translate(-1556.143 -1192.466)" fill="#664238"/>
    </g>
    <g id="Group_162" data-name="Group 162" transform="translate(201.764 237.157)">
      <path id="Path_157" data-name="Path 157" d="M1609.157,1270.5a55.885,55.885,0,0,0,20.765-3.712,25.345,25.345,0,0,0,6.125-3.95c.985-.781,1.917-1.518,2.885-2.163a42.333,42.333,0,0,1,4.8-2.647c3.752-1.858,7.3-3.614,9.766-8.139,2.732-5.011,2.981-11.7,3.2-17.609.039-1.067.078-2.1.13-3.076.094-1.733.172-3.468.252-5.2.406-8.906.827-18.115,3.318-26.842a1.031,1.031,0,0,0-.709-1.276,1.02,1.02,0,0,0-1.276.708c-2.56,8.96-2.985,18.291-3.4,27.315-.079,1.73-.157,3.461-.251,5.188-.054.987-.093,2.03-.132,3.11-.213,5.678-.452,12.114-2.95,16.7-2.158,3.954-5.268,5.495-8.871,7.279a44.074,44.074,0,0,0-5.028,2.779c-1.038.692-2.046,1.489-3.021,2.261a23.849,23.849,0,0,1-5.61,3.653c-16.863,6.744-37.455,2.9-51.1-2.953a1.033,1.033,0,0,0-.815,1.9A83.744,83.744,0,0,0,1609.157,1270.5Z" transform="translate(-1576.614 -1195.841)" fill="#664238"/>
    </g>
    <g id="Group_163" data-name="Group 163" transform="translate(192.042 237.038)">
      <path id="Path_158" data-name="Path 158" d="M1630.267,1267.769c6.955,0,16.843-2.01,20.728-5.9,3.772-3.772,9.887-6.609,13.54-8.3.6-.277,1.141-.528,1.609-.754,7.165-3.444,7.491-15.745,7.807-27.639a117.908,117.908,0,0,1,.839-13.5c1.069-7.186,2.815-14.68,2.833-14.755a1.033,1.033,0,1,0-2.011-.47c-.018.075-1.781,7.65-2.865,14.922a119.688,119.688,0,0,0-.861,13.745c-.3,11.276-.609,22.935-6.637,25.834-.46.222-.994.469-1.583.742-3.778,1.752-10.1,4.685-14.131,8.718-4.136,4.138-16.783,6.019-22.848,5.052-1.7-.27-3.576-.511-5.545-.762-8.377-1.07-18.8-2.4-23.034-7.353-2.853-3.34-5.336-9.255-7.378-17.583-1.631-6.644-3.012-26.733,1.184-43.06a1.033,1.033,0,0,0-2-.513c-4.338,16.884-2.916,37.031-1.19,44.065,2.12,8.644,4.748,14.844,7.814,18.433,4.749,5.558,15.613,6.945,24.344,8.06,1.944.249,3.8.485,5.48.751A25.265,25.265,0,0,0,1630.267,1267.769Z" transform="translate(-1587.045 -1195.419)" fill="#664238"/>
    </g>
    <g id="Group_164" data-name="Group 164" transform="translate(506.156 295.193)">
      <path id="Path_159" data-name="Path 159" d="M553.358,1411.761c.587,0,1.205-.024,1.859-.075,3.222-.256,6.625-.4,10.226-.544,8.776-.362,17.85-.737,25.678-2.828a110.49,110.49,0,0,0,13.4-4.648l.267-.106a1.033,1.033,0,0,0-.768-1.917l-.266.106a108.934,108.934,0,0,1-13.171,4.57c-7.608,2.033-16.566,2.4-25.231,2.759-3.622.149-7.043.291-10.3.549-4.764.388-7.257-.795-10.144-2.155a24.925,24.925,0,0,0-12.857-2.831,1.033,1.033,0,0,0-1,1.065,1.057,1.057,0,0,0,1.064,1,22.614,22.614,0,0,1,11.912,2.635A19.824,19.824,0,0,0,553.358,1411.761Z" transform="translate(-531.053 -1401.57)" fill="#664238"/>
    </g>
    <g id="Group_165" data-name="Group 165" transform="translate(653.734 283.077)">
      <path id="Path_160" data-name="Path 160" d="M221.842,1361.244a1.032,1.032,0,0,0,.193-2.046c-3.951-.758-9.636-.768-17.377-.036a1.033,1.033,0,0,0,.195,2.057c7.545-.715,13.039-.711,16.794.007A.983.983,0,0,0,221.842,1361.244Z" transform="translate(-203.722 -1358.621)" fill="#664238"/>
    </g>
  </g>
  <path id="Path_161" data-name="Path 161" d="M1199.707,718.919a1.358,1.358,0,1,0-1.356,1.308A1.332,1.332,0,0,0,1199.707,718.919Z" transform="translate(-807.025 -615.365)" fill="#664238" fill-rule="evenodd"/>
  <g id="Group_167" data-name="Group 167" transform="translate(380.687 121.218)">
    <path id="Path_162" data-name="Path 162" d="M1206.366,789.442c2.467,0,5.253-1.082,6.553-2.857a1.086,1.086,0,1,0-1.752-1.284c-1.317,1.8-5.259,2.47-6.739,1.535a1.086,1.086,0,0,0-1.16,1.836A5.841,5.841,0,0,0,1206.366,789.442Z" transform="translate(-1202.762 -784.857)" fill="#664238"/>
  </g>
</svg>
