<svg xmlns="http://www.w3.org/2000/svg" width="27.822" height="33.386" viewBox="0 0 27.822 33.386">
  <g id="sd-card" transform="translate(-2)">
    <g id="Group_169" data-name="Group 169" transform="translate(2)">
      <path id="Path_163" data-name="Path 163" d="M26.344,33.386H5.478A3.482,3.482,0,0,1,2,29.908V3.478A3.482,3.482,0,0,1,5.478,0H21.845a3.478,3.478,0,0,1,2.319.886l4.5,4.026A3.486,3.486,0,0,1,29.822,7.5v22.4a3.482,3.482,0,0,1-3.478,3.478Zm-20.866-32A2.089,2.089,0,0,0,3.391,3.478V29.908A2.089,2.089,0,0,0,5.478,32H26.344a2.089,2.089,0,0,0,2.087-2.087V7.5a2.091,2.091,0,0,0-.7-1.557l-4.5-4.024a2.084,2.084,0,0,0-1.391-.533Z" transform="translate(-2)" fill="#7e7e7e"/>
    </g>
    <g id="Group_170" data-name="Group 170" transform="translate(6.173 4.173)">
      <path id="Path_164" data-name="Path 164" d="M5.7,7.173a.7.7,0,0,1-.7-.7V3.7a.7.7,0,0,1,1.391,0V6.478A.7.7,0,0,1,5.7,7.173Z" transform="translate(-5 -3)" fill="#7e7e7e"/>
    </g>
    <g id="Group_171" data-name="Group 171" transform="translate(10.347 4.173)">
      <path id="Path_165" data-name="Path 165" d="M8.7,7.173a.7.7,0,0,1-.7-.7V3.7a.7.7,0,0,1,1.391,0V6.478A.7.7,0,0,1,8.7,7.173Z" transform="translate(-8 -3)" fill="#7e7e7e"/>
    </g>
    <g id="Group_172" data-name="Group 172" transform="translate(14.52 4.173)">
      <path id="Path_166" data-name="Path 166" d="M11.7,7.173a.7.7,0,0,1-.7-.7V3.7a.7.7,0,1,1,1.391,0V6.478A.7.7,0,0,1,11.7,7.173Z" transform="translate(-11 -3)" fill="#7e7e7e"/>
    </g>
    <g id="Group_173" data-name="Group 173" transform="translate(18.693 4.173)">
      <path id="Path_167" data-name="Path 167" d="M14.7,7.173a.7.7,0,0,1-.7-.7V3.7a.7.7,0,0,1,1.391,0V6.478A.7.7,0,0,1,14.7,7.173Z" transform="translate(-14 -3)" fill="#7e7e7e"/>
    </g>
    <g id="Group_174" data-name="Group 174" transform="translate(6.173 16.693)">
      <path id="Path_168" data-name="Path 168" d="M23.78,24.52H5.7a.7.7,0,0,1-.7-.7V12.7a.7.7,0,0,1,.7-.7H23.78a.7.7,0,0,1,.7.7V23.824A.7.7,0,0,1,23.78,24.52ZM6.391,23.129H23.084V13.391H6.391Z" transform="translate(-5 -12)" fill="#7e7e7e"/>
    </g>
  </g>
</svg>
