<?xml version="1.0" encoding="utf-8"?>
<!-- Generator: Adobe Illustrator 26.3.1, SVG Export Plug-In . SVG Version: 6.00 Build 0)  -->
<svg version="1.1" id="圖層_1" xmlns="http://www.w3.org/2000/svg" xmlns:xlink="http://www.w3.org/1999/xlink" x="0px" y="0px"
	 viewBox="0 0 512 512" style="enable-background:new 0 0 512 512;" xml:space="preserve">
<style type="text/css">
	.st0{fill:#7494B0;}
</style>
<path class="st0" d="M0,490.7C0,502.4,9.6,512,21.3,512h469.3c11.8,0,21.3-9.6,21.3-21.3V384c0-11.8-9.6-21.3-21.3-21.3H21.3
	C9.6,362.7,0,372.2,0,384V490.7z"/>
<path class="st0" d="M490.7,0H21.3C9.6,0,0,9.6,0,21.3V128c0,11.8,9.6,21.3,21.3,21.3h469.3c11.8,0,21.3-9.6,21.3-21.3V21.3
	C512,9.6,502.4,0,490.7,0z"/>
<path class="st0" d="M21.3,330.7h469.3c11.8,0,21.3-9.6,21.3-21.3V202.7c0-11.8-9.6-21.3-21.3-21.3H21.3C9.6,181.3,0,190.9,0,202.7
	v106.7C0,321.1,9.6,330.7,21.3,330.7z"/>
</svg>
